G04 DesignSpark PCB PRO Gerber Version 10.0 Build 5299*
%FSLAX35Y35*%
%MOIN*%
%ADD105C,0.01181*%
%ADD107C,0.01600*%
%ADD106C,0.02400*%
%ADD111C,0.04331*%
%ADD109C,0.16535*%
%ADD110C,0.16929*%
%ADD108C,0.18504*%
X0Y0D02*
D02*
D105*
X191272Y57459D03*
X195969Y57376D03*
Y133594D03*
X199463Y130224D03*
Y144784D03*
X202459Y127479D03*
X204522Y144784D03*
Y181102D03*
X204705Y119328D03*
X205989Y57334D03*
X207076Y115997D03*
X209323Y113028D03*
X209522Y144784D03*
Y181014D03*
X211694Y109879D03*
X214522Y144784D03*
Y181014D03*
X215989Y57501D03*
X219522Y144784D03*
Y181014D03*
X224488D03*
X225772Y96777D03*
X225955Y57501D03*
X226110Y67318D03*
X228168Y93907D03*
X229480Y181014D03*
X229522Y160179D03*
X230415Y90407D03*
X231663Y69939D03*
X234522Y181014D03*
X235989Y57626D03*
X239522Y160179D03*
Y181014D03*
X240274Y70688D03*
X242645Y67333D03*
X244522Y160179D03*
Y181014D03*
X245989Y57334D03*
X249522Y181014D03*
X249772Y160179D03*
X253272Y66083D03*
X254522Y181227D03*
X255989Y57501D03*
X258870Y65077D03*
X259522Y181227D03*
X265989Y57501D03*
Y65077D03*
X270976Y63205D03*
X275989Y57501D03*
X277590Y113028D03*
X279961Y116246D03*
X285989Y57501D03*
X289946Y119328D03*
X292442Y122477D03*
X294938Y125607D03*
X295989Y57501D03*
X297309Y128776D03*
X299680Y131926D03*
X302052Y134929D03*
X305772Y143679D03*
X305989Y57750D03*
X309290Y146179D03*
X312036Y148679D03*
X315272Y151179D03*
X325828Y57334D03*
X368136Y56086D03*
D02*
D106*
X176000Y59498D03*
X180772Y65945D03*
X185860Y59498D03*
X190916Y65945D03*
D02*
D107*
X142022Y59833D03*
Y86083D03*
Y111083D03*
Y136083D03*
Y161083D03*
Y186083D03*
Y206083D03*
X165772Y186083D03*
Y206083D03*
X167272Y166750D03*
X172272Y138679D03*
X172445Y108716D03*
Y118700D03*
Y166750D03*
X180931Y90781D03*
X184052Y134800D03*
X190772Y186083D03*
Y206083D03*
X190791Y118363D03*
X190916Y90781D03*
Y108628D03*
X215772Y171083D03*
Y206083D03*
X228272Y171083D03*
X240772Y206083D03*
X243272Y171083D03*
X247826Y102762D03*
Y122487D03*
X260772Y171083D03*
X262489Y99148D03*
Y104833D03*
X265772Y206083D03*
X273272Y102333D03*
X281772Y150562D03*
X285772Y66083D03*
Y91156D03*
X290758Y150562D03*
Y159048D03*
X290772Y206083D03*
X315772Y156083D03*
Y181083D03*
Y206083D03*
X320772Y81083D03*
Y106083D03*
Y131083D03*
X335772Y66083D03*
Y206083D03*
X353272Y106083D03*
Y131083D03*
Y156083D03*
Y181083D03*
Y206083D03*
X360772Y66083D03*
Y98583D03*
X387980Y66082D03*
X389522Y98583D03*
D02*
D108*
X155437Y90061D03*
X376540Y71161D03*
D02*
D109*
X156264Y106596D03*
D02*
D110*
X375713Y86909D03*
D02*
D111*
X206124Y78930D03*
X216124D03*
X226124D03*
X236124D03*
X246124D03*
X256124D03*
X0Y0D02*
M02*
