G05
M48
;#@! TF.GenerationSoftware,DesignSpark,DesignSpark PCB PRO,10.0.5299
;#@! TF.CreationDate,2021-09-16T13:21:56--9:00*
;#@! TF.FileFunction,Plated,1,2,Buried
;FILE_FORMAT=3:5
;TYPE=PLATED
INCH,TZ
FMAT,2
T1C000.01181
T2C000.01600
T3C000.02400
T4C000.04331
T5C000.16535
T6C000.16929
T7C000.18504
%
T001
X1.91272Y0.57459
X1.95969Y0.57376
X1.95969Y1.33594
X1.99463Y1.30224
X1.99463Y1.44784
X2.02459Y1.27479
X2.04522Y1.44784
X2.04522Y1.81102
X2.04705Y1.19328
X2.05989Y0.57334
X2.07076Y1.15997
X2.09323Y1.13028
X2.09522Y1.44784
X2.09522Y1.81014
X2.11694Y1.09879
X2.14522Y1.44784
X2.14522Y1.81014
X2.15989Y0.57501
X2.19522Y1.44784
X2.19522Y1.81014
X2.24488Y1.81014
X2.25772Y0.96777
X2.25955Y0.57501
X2.26110Y0.67318
X2.28168Y0.93907
X2.29480Y1.81014
X2.29522Y1.60179
X2.30415Y0.90407
X2.31663Y0.69939
X2.34522Y1.81014
X2.35989Y0.57626
X2.39522Y1.60179
X2.39522Y1.81014
X2.40274Y0.70688
X2.42645Y0.67333
X2.44522Y1.60179
X2.44522Y1.81014
X2.45989Y0.57334
X2.49522Y1.81014
X2.49772Y1.60179
X2.53272Y0.66083
X2.54522Y1.81227
X2.55989Y0.57501
X2.58870Y0.65077
X2.59522Y1.81227
X2.65989Y0.57501
X2.65989Y0.65077
X2.70976Y0.63205
X2.75989Y0.57501
X2.77590Y1.13028
X2.79961Y1.16246
X2.85989Y0.57501
X2.89946Y1.19328
X2.92442Y1.22477
X2.94938Y1.25607
X2.95989Y0.57501
X2.97309Y1.28776
X2.99680Y1.31926
X3.02052Y1.34929
X3.05772Y1.43679
X3.05989Y0.57750
X3.09290Y1.46179
X3.12036Y1.48679
X3.15272Y1.51179
X3.25828Y0.57334
X3.68136Y0.56086
T002
X1.42022Y0.59833
X1.42022Y0.86083
X1.42022Y1.11083
X1.42022Y1.36083
X1.42022Y1.61083
X1.42022Y1.86083
X1.42022Y2.06083
X1.65772Y1.86083
X1.65772Y2.06083
X1.67272Y1.66750
X1.72272Y1.38679
X1.72445Y1.08716
X1.72445Y1.18700
X1.72445Y1.66750
X1.80931Y0.90781
X1.84052Y1.34800
X1.90772Y1.86083
X1.90772Y2.06083
X1.90791Y1.18363
X1.90916Y0.90781
X1.90916Y1.08628
X2.15772Y1.71083
X2.15772Y2.06083
X2.28272Y1.71083
X2.40772Y2.06083
X2.43272Y1.71083
X2.47826Y1.02762
X2.47826Y1.22487
X2.60772Y1.71083
X2.62489Y0.99148
X2.62489Y1.04833
X2.65772Y2.06083
X2.73272Y1.02333
X2.81772Y1.50562
X2.85772Y0.66083
X2.85772Y0.91156
X2.90758Y1.50562
X2.90758Y1.59048
X2.90772Y2.06083
X3.15772Y1.56083
X3.15772Y1.81083
X3.15772Y2.06083
X3.20772Y0.81083
X3.20772Y1.06083
X3.20772Y1.31083
X3.35772Y0.66083
X3.35772Y2.06083
X3.53272Y1.06083
X3.53272Y1.31083
X3.53272Y1.56083
X3.53272Y1.81083
X3.53272Y2.06083
X3.60772Y0.66083
X3.60772Y0.98583
X3.87980Y0.66082
X3.89522Y0.98583
T003
X1.76000Y0.59498
X1.80772Y0.65945
X1.85860Y0.59498
X1.90916Y0.65945
T004
X2.06124Y0.78930
X2.16124Y0.78930
X2.26124Y0.78930
X2.36124Y0.78930
X2.46124Y0.78930
X2.56124Y0.78930
T005
X1.56264Y1.06596
T006
X3.75713Y0.86909
T007
X1.55437Y0.90061
X3.76540Y0.71161
M30
