G04 DesignSpark PCB PRO Gerber Version 10.0 Build 5299*
%FSLAX35Y35*%
%MOIN*%
%ADD114R,0.02562X0.06007*%
%ADD117R,0.02759X0.07767*%
%ADD115R,0.04140X0.04530*%
%ADD112R,0.06893X0.29728*%
%ADD102R,0.06893X0.35633*%
%ADD103R,0.06696X0.06696*%
%ADD13C,0.00500*%
%ADD116R,0.03743X0.02562*%
%ADD113R,0.06007X0.02562*%
%ADD118R,0.04491X0.04137*%
%ADD23R,2.58583X0.41339*%
%ADD104C,0.06696*%
X0Y0D02*
D02*
D13*
X142281Y8169D02*
G75*
G02*
X137001Y13449I0J5280D01*
G01*
Y204833D01*
G75*
G02*
X143251Y211083I6250J0D01*
G01*
X388594D01*
G75*
G02*
X394844Y204833I0J-6250D01*
G01*
Y13667D01*
G75*
G02*
X389347Y8169I-5497J0D01*
G01*
X142281D01*
D02*
D23*
X265548Y28005D03*
D02*
D102*
X145989Y30217D03*
X155989D03*
X165989D03*
X185989D03*
X195989D03*
X205989D03*
X215989D03*
X225989D03*
X235989D03*
X245989D03*
X255989D03*
X265989D03*
X275989D03*
X285989D03*
X295989D03*
X305989D03*
X315989D03*
X325989D03*
X335989D03*
X345989D03*
X355989D03*
X365989D03*
X375989D03*
X385989D03*
D02*
D103*
X256124Y78930D03*
D02*
D104*
X206124D03*
X216124D03*
X226124D03*
X236124D03*
X246124D03*
D02*
D112*
X175989Y33169D03*
D02*
D113*
X239855Y100430D03*
Y103580D03*
Y106729D03*
Y109879D03*
Y113028D03*
Y116178D03*
Y119328D03*
Y122477D03*
Y125627D03*
Y128776D03*
Y131926D03*
X285036Y100430D03*
Y103580D03*
Y106729D03*
Y109879D03*
Y113028D03*
Y116178D03*
Y119328D03*
Y122477D03*
Y125627D03*
Y128776D03*
Y131926D03*
D02*
D114*
X246697Y93587D03*
Y138769D03*
X249847Y93587D03*
Y138769D03*
X252996Y93587D03*
Y138769D03*
X256146Y93587D03*
Y138769D03*
X259296Y93587D03*
Y138769D03*
X262445Y93587D03*
Y138769D03*
X265595Y93587D03*
Y138769D03*
X268744Y93587D03*
Y138769D03*
X271894Y93587D03*
Y138769D03*
X275044Y93587D03*
Y138769D03*
X278193Y93587D03*
Y138769D03*
D02*
D115*
X178555Y108679D03*
Y118679D03*
X182424Y148404D03*
Y158887D03*
X185555Y108679D03*
Y118679D03*
X189424Y148404D03*
Y158887D03*
X274279Y168497D03*
X281279D03*
X294996Y109964D03*
X301996D03*
D02*
D116*
X178540Y131060D03*
Y134800D03*
Y138540D03*
X189563Y131060D03*
Y138540D03*
D02*
D117*
X199522Y152184D03*
Y189302D03*
X204522Y152184D03*
Y189302D03*
X209522Y152184D03*
Y189302D03*
X214522Y152184D03*
Y189302D03*
X219522Y152184D03*
Y189302D03*
X224522Y152184D03*
Y189302D03*
X229522Y152184D03*
Y189302D03*
X234522Y152184D03*
Y189302D03*
X239522Y152184D03*
Y189302D03*
X244522Y152184D03*
Y189302D03*
X249522Y152184D03*
Y189302D03*
X254522Y152184D03*
Y189302D03*
X259522Y152184D03*
Y189302D03*
X264522Y152184D03*
Y189302D03*
D02*
D118*
X274154Y158887D03*
X281154D03*
X0Y0D02*
M02*
