G04 DesignSpark PCB PRO Gerber Version 10.0 Build 5299*
%FSLAX35Y35*%
%MOIN*%
%ADD89R,0.02362X0.05807*%
%ADD92R,0.02559X0.07567*%
%ADD90R,0.03940X0.04330*%
%ADD18R,0.06693X0.29528*%
%ADD17R,0.06693X0.35433*%
%ADD86R,0.06496X0.06496*%
%ADD13C,0.00500*%
%ADD84C,0.00602*%
%ADD11C,0.01000*%
%ADD15C,0.02500*%
%ADD16C,0.02677*%
%ADD14C,0.03200*%
%ADD85C,0.04800*%
%ADD10C,0.05000*%
%ADD91R,0.03543X0.02362*%
%ADD88R,0.05807X0.02362*%
%ADD93R,0.04291X0.03937*%
%ADD87C,0.06496*%
X0Y0D02*
D02*
D10*
X165989Y49399D02*
X165142Y47933D01*
X166835D01*
X165989Y49399D01*
G36*
X165989Y49399D02*
X165142Y47933D01*
X166835D01*
X165989Y49399D01*
G37*
X175989Y33169D02*
Y52690D01*
X165989D01*
Y30217D01*
X175989Y49399D02*
X175142Y47933D01*
X176835D01*
X175989Y49399D01*
G36*
X175989Y49399D02*
X175142Y47933D01*
X176835D01*
X175989Y49399D01*
G37*
D02*
D11*
X177085Y108679D02*
X175083D01*
X177085Y118679D02*
X175083D01*
X177268Y131060D02*
X175268D01*
X177268Y138540D02*
X175268D01*
X178540Y130379D02*
Y128378D01*
Y139221D02*
Y141220D01*
X178555Y107014D02*
Y105014D01*
Y110344D02*
Y112343D01*
Y117014D02*
Y115014D01*
Y120344D02*
Y122343D01*
X179811Y134800D02*
X181811D01*
X180954Y148404D02*
X178953D01*
X180954Y158887D02*
X178953D01*
X182424Y146739D02*
Y144740D01*
Y150069D02*
Y152067D01*
Y157222D02*
Y155220D01*
X184085Y108679D02*
X182083D01*
X184085Y118679D02*
X182083D01*
X185555Y107014D02*
Y105014D01*
Y110344D02*
Y112343D01*
Y117014D02*
Y115014D01*
Y120344D02*
Y122343D01*
X187025Y108679D02*
X189024D01*
X187025Y118679D02*
X189024D01*
X187954Y148404D02*
X185953D01*
X187954Y158887D02*
X185953D01*
X188292Y138540D02*
X186292D01*
X189424Y146739D02*
Y144740D01*
Y150069D02*
Y152067D01*
Y157222D02*
Y155220D01*
Y160552D02*
Y162551D01*
X189563Y137859D02*
Y135858D01*
Y139221D02*
Y141220D01*
X190835Y138540D02*
X192835D01*
X190894Y148404D02*
X192894D01*
X190894Y158887D02*
X192894D01*
X198743Y189302D02*
X196743D01*
X199522Y186019D02*
Y184020D01*
Y192586D02*
Y194587D01*
X237451Y122477D02*
X235451D01*
X239855D02*
X247817D01*
X247826Y122487D01*
X243376Y78930D02*
X241376D01*
X243938Y122477D02*
X242758Y123158D01*
Y121796D01*
X243938Y122477D01*
G36*
X243938Y122477D02*
X242758Y123158D01*
Y121796D01*
X243938Y122477D01*
G37*
X245626D02*
X247272Y123437D01*
G75*
G03*
X247280Y121531I554J-950D01*
G01*
X245626Y122477D01*
G36*
X245626Y122477D02*
X247272Y123437D01*
G75*
G03*
X247280Y121531I554J-950D01*
G01*
X245626Y122477D01*
G37*
X246124Y76182D02*
Y74182D01*
Y81678D02*
Y83678D01*
X248872Y78930D02*
X250872D01*
X256146Y89504D02*
X256827Y90684D01*
X255465D01*
X256146Y89504D01*
G36*
X256146Y89504D02*
X256827Y90684D01*
X255465D01*
X256146Y89504D01*
G37*
Y93587D02*
Y78952D01*
X256124Y78930D01*
X256146Y95991D02*
Y97992D01*
X262445Y95991D02*
Y97992D01*
X262489Y96948D02*
X261536Y98598D01*
G75*
G03*
X263442I953J550D01*
G01*
X262489Y96948D01*
G36*
X262489Y96948D02*
X261536Y98598D01*
G75*
G03*
X263442I953J550D01*
G01*
X262489Y96948D01*
G37*
Y99148D02*
Y93631D01*
X262445Y93587D01*
X264522Y155468D02*
Y157469D01*
X265302Y152184D02*
X267302D01*
X272508Y158887D02*
X270508D01*
X272809Y168497D02*
X270807D01*
X274154Y157419D02*
Y155417D01*
Y160356D02*
Y162354D01*
X274279Y166832D02*
Y164831D01*
Y170162D02*
Y172161D01*
X275044Y136365D02*
Y134366D01*
X275749Y168497D02*
X277748D01*
X275800Y158887D02*
X277800D01*
X281279Y166832D02*
Y164831D01*
Y170162D02*
Y172161D01*
X282632Y106729D02*
X280632D01*
X282632Y109879D02*
X280632D01*
X282749Y168497D02*
X284748D01*
X285036Y109879D02*
X294911D01*
X294996Y109964D01*
X287439Y106729D02*
X289439D01*
X289119Y109879D02*
X287939Y110560D01*
Y109198D01*
X289119Y109879D01*
G36*
X289119Y109879D02*
X287939Y110560D01*
Y109198D01*
X289119Y109879D01*
G37*
X300526Y109964D02*
X298526D01*
X301996Y108299D02*
Y106299D01*
Y111629D02*
Y113630D01*
X303466Y109964D02*
X305465D01*
D02*
D13*
X139522Y205462D02*
Y48583D01*
X141790D01*
Y48785D01*
X150187D01*
Y48583D01*
X151790D01*
Y48785D01*
X160187D01*
Y48583D01*
X161790D01*
Y48785D01*
X161900D01*
G75*
G02*
X162239Y49609I3242J-853D01*
G01*
X162636Y50297D01*
Y52690D01*
G75*
G02*
X165989Y56043I3352J0D01*
G01*
X175989D01*
G75*
G02*
X179341Y52690I0J-3352D01*
G01*
Y50297D01*
X179738Y49609D01*
G75*
G02*
X180077Y48785I-2903J-1676D01*
G01*
X180187D01*
Y48583D01*
X181790D01*
Y48785D01*
X182104D01*
X184835Y53516D01*
Y54470D01*
G75*
G02*
X185174Y55287I1154J0D01*
G01*
X188161Y58273D01*
G75*
G02*
X188881Y58608I817J-814D01*
G01*
X190177Y59356D01*
G75*
G02*
X190196Y59367I594J-1034D01*
G01*
G75*
G02*
X193463Y57459I1076J-1908D01*
G01*
G75*
G02*
X190196Y55550I-2191J0D01*
G01*
G75*
G02*
X190177Y55561I575J1044D01*
G01*
X189248Y56097D01*
X187142Y53992D01*
Y53516D01*
X189874Y48785D01*
X190187D01*
Y48583D01*
X191790D01*
Y48785D01*
X192104D01*
X194835Y53516D01*
Y54986D01*
X194082Y56263D01*
G75*
G02*
X194074Y56275I1030J620D01*
G01*
G75*
G02*
X193778Y57376I1895J1101D01*
G01*
G75*
G02*
X198160I2191J0D01*
G01*
G75*
G02*
X197863Y56274I-2191J0D01*
G01*
X197142Y54998D01*
Y53516D01*
X199874Y48785D01*
X200187D01*
Y48583D01*
X201790D01*
Y48785D01*
X202104D01*
X204835Y53516D01*
Y54950D01*
X204091Y56239D01*
G75*
G02*
X204080Y56257I1034J594D01*
G01*
G75*
G02*
X203798Y57334I1909J1077D01*
G01*
G75*
G02*
X208180I2191J0D01*
G01*
G75*
G02*
X207897Y56257I-2191J0D01*
G01*
G75*
G02*
X207886Y56239I-1044J575D01*
G01*
X207142Y54950D01*
Y53516D01*
X209874Y48785D01*
X210187D01*
Y48583D01*
X211790D01*
Y48785D01*
X212104D01*
X214835Y53516D01*
Y55117D01*
X214091Y56406D01*
G75*
G02*
X214080Y56424I1034J594D01*
G01*
G75*
G02*
X213798Y57501I1909J1077D01*
G01*
G75*
G02*
X218180I2191J0D01*
G01*
G75*
G02*
X217897Y56424I-2191J0D01*
G01*
G75*
G02*
X217886Y56406I-1044J575D01*
G01*
X217142Y55117D01*
Y53516D01*
X219874Y48785D01*
X220187D01*
Y48583D01*
X221790D01*
Y48785D01*
X222104D01*
X224835Y53516D01*
Y55107D01*
X224076Y56375D01*
G75*
G02*
X224068Y56388I1005J600D01*
G01*
G75*
G02*
X223764Y57501I1887J1113D01*
G01*
G75*
G02*
X228146I2191J0D01*
G01*
G75*
G02*
X227876Y56448I-2191J0D01*
G01*
G75*
G02*
X227870Y56436I-1041J567D01*
G01*
X227142Y55127D01*
Y53516D01*
X229874Y48785D01*
X230187D01*
Y48583D01*
X231790D01*
Y48785D01*
X232104D01*
X234835Y53516D01*
Y55241D01*
X234091Y56530D01*
G75*
G02*
X234080Y56549I1034J594D01*
G01*
G75*
G02*
X233798Y57626I1909J1077D01*
G01*
G75*
G02*
X238180I2191J0D01*
G01*
G75*
G02*
X237897Y56549I-2191J0D01*
G01*
G75*
G02*
X237886Y56530I-1044J575D01*
G01*
X237142Y55241D01*
Y53516D01*
X239874Y48785D01*
X240187D01*
Y48583D01*
X241790D01*
Y48785D01*
X242104D01*
X244835Y53516D01*
Y54950D01*
X244091Y56239D01*
G75*
G02*
X244080Y56257I1034J594D01*
G01*
G75*
G02*
X243798Y57334I1909J1077D01*
G01*
G75*
G02*
X248180I2191J0D01*
G01*
G75*
G02*
X247897Y56257I-2191J0D01*
G01*
G75*
G02*
X247886Y56239I-1044J575D01*
G01*
X247142Y54950D01*
Y53516D01*
X249874Y48785D01*
X250187D01*
Y48583D01*
X251790D01*
Y48785D01*
X252104D01*
X254835Y53516D01*
Y55117D01*
X254091Y56406D01*
G75*
G02*
X254080Y56424I1034J594D01*
G01*
G75*
G02*
X253798Y57501I1909J1077D01*
G01*
G75*
G02*
X258180I2191J0D01*
G01*
G75*
G02*
X257897Y56424I-2191J0D01*
G01*
G75*
G02*
X257886Y56406I-1044J575D01*
G01*
X257142Y55117D01*
Y53516D01*
X259874Y48785D01*
X260187D01*
Y48583D01*
X261790D01*
Y48785D01*
X262104D01*
X264835Y53516D01*
Y55117D01*
X264091Y56406D01*
G75*
G02*
X264080Y56424I1034J594D01*
G01*
G75*
G02*
X263798Y57501I1909J1077D01*
G01*
G75*
G02*
X268180I2191J0D01*
G01*
G75*
G02*
X267897Y56424I-2191J0D01*
G01*
G75*
G02*
X267886Y56406I-1044J575D01*
G01*
X267142Y55117D01*
Y53516D01*
X269874Y48785D01*
X270187D01*
Y48583D01*
X271790D01*
Y48785D01*
X272104D01*
X274835Y53516D01*
Y55117D01*
X274091Y56406D01*
G75*
G02*
X274080Y56424I1034J594D01*
G01*
G75*
G02*
X273798Y57501I1909J1077D01*
G01*
G75*
G02*
X278180I2191J0D01*
G01*
G75*
G02*
X277897Y56424I-2191J0D01*
G01*
G75*
G02*
X277886Y56406I-1044J575D01*
G01*
X277142Y55117D01*
Y53516D01*
X279874Y48785D01*
X280187D01*
Y48583D01*
X281790D01*
Y48785D01*
X282104D01*
X284835Y53516D01*
Y55117D01*
X284091Y56406D01*
G75*
G02*
X284080Y56424I1034J594D01*
G01*
G75*
G02*
X283798Y57501I1909J1077D01*
G01*
G75*
G02*
X288180I2191J0D01*
G01*
G75*
G02*
X287897Y56424I-2191J0D01*
G01*
G75*
G02*
X287886Y56406I-1044J575D01*
G01*
X287142Y55117D01*
Y53516D01*
X289874Y48785D01*
X290187D01*
Y48583D01*
X291790D01*
Y48785D01*
X292104D01*
X294835Y53516D01*
Y55117D01*
X294091Y56406D01*
G75*
G02*
X294080Y56424I1034J594D01*
G01*
G75*
G02*
X293798Y57501I1909J1077D01*
G01*
G75*
G02*
X298180I2191J0D01*
G01*
G75*
G02*
X297897Y56424I-2191J0D01*
G01*
G75*
G02*
X297886Y56406I-1044J575D01*
G01*
X297142Y55117D01*
Y53516D01*
X299874Y48785D01*
X300187D01*
Y48583D01*
X301790D01*
Y48785D01*
X302104D01*
X304835Y53516D01*
Y55366D01*
X304091Y56655D01*
G75*
G02*
X304080Y56674I1034J594D01*
G01*
G75*
G02*
X303798Y57750I1909J1077D01*
G01*
G75*
G02*
X308180I2191J0D01*
G01*
G75*
G02*
X307897Y56674I-2191J0D01*
G01*
G75*
G02*
X307886Y56655I-1044J575D01*
G01*
X307142Y55366D01*
Y53516D01*
X309874Y48785D01*
X310187D01*
Y48583D01*
X311790D01*
Y48785D01*
X320187D01*
Y48583D01*
X321790D01*
Y48785D01*
X322104D01*
X324835Y53516D01*
Y54908D01*
X324039Y56069D01*
G75*
G02*
X323637Y57334I1789J1265D01*
G01*
G75*
G02*
X328019I2191J0D01*
G01*
G75*
G02*
X327788Y56356I-2191J0D01*
G01*
X327142Y55004D01*
Y53516D01*
X329874Y48785D01*
X330187D01*
Y48583D01*
X331790D01*
Y48785D01*
X340187D01*
Y48583D01*
X341790D01*
Y48785D01*
X350187D01*
Y48583D01*
X351790D01*
Y48785D01*
X360187D01*
Y48583D01*
X361790D01*
Y48785D01*
X370187D01*
Y48583D01*
X371790D01*
Y48785D01*
X372104D01*
X374835Y53516D01*
Y53557D01*
X373460Y54932D01*
X370520D01*
X369231Y54188D01*
G75*
G02*
X369213Y54178I-594J1034D01*
G01*
G75*
G02*
X365945Y56086I-1076J1908D01*
G01*
G75*
G02*
X369213Y57994I2191J0D01*
G01*
G75*
G02*
X369231Y57983I-575J-1044D01*
G01*
X370520Y57239D01*
X373938D01*
G75*
G02*
X374755Y56900I0J-1154D01*
G01*
X376803Y54852D01*
G75*
G02*
X377142Y54035I-814J-817D01*
G01*
Y53516D01*
X379874Y48785D01*
X380187D01*
Y48583D01*
X381790D01*
Y48785D01*
X390187D01*
Y48583D01*
X392348D01*
Y98583D01*
G75*
G03*
X389848Y101083I-2500J0D01*
G01*
X358272D01*
G75*
G02*
X355772Y103583I0J2500D01*
G01*
Y206083D01*
G75*
G03*
X353272Y208583I-2500J0D01*
G01*
X142764D01*
G75*
G03*
X139522Y205462I487J-3750D01*
G01*
X381754Y79817D02*
G75*
G02*
X386644Y71161I-5215J-8655D01*
G01*
G75*
G02*
X366435I-10104J0D01*
G01*
G75*
G02*
X370448Y79223I10104J0D01*
G01*
G75*
G02*
X366396Y86909I5265J7687D01*
G01*
G75*
G02*
X385030I9317J0D01*
G01*
G75*
G02*
X381754Y79817I-9317J0D01*
G01*
X160750Y98656D02*
G75*
G02*
X165542Y90061I-5313J-8595D01*
G01*
G75*
G02*
X145333I-10104J0D01*
G01*
G75*
G02*
X151009Y99143I10104J0D01*
G01*
G75*
G02*
X147144Y106596I5256J7454D01*
G01*
G75*
G02*
X165384I9120J0D01*
G01*
G75*
G02*
X160750Y98656I-9120J0D01*
G01*
X314021Y152978D02*
G75*
G02*
X317463Y151179I1251J-1799D01*
G01*
G75*
G02*
X314305Y149213I-2191J0D01*
G01*
X314139Y149293D01*
G75*
G02*
X311446Y146569I-2103J-614D01*
G01*
G75*
G02*
X311481Y146179I-2157J-391D01*
G01*
G75*
G02*
X308214Y144270I-2191J0D01*
G01*
G75*
G02*
X308195Y144281I575J1044D01*
G01*
X307799Y144509D01*
G75*
G02*
X304696Y141770I-2027J-831D01*
G01*
G75*
G02*
X304677Y141781I575J1044D01*
G01*
X303388Y142525D01*
X273389D01*
X273388Y142524D01*
X280227D01*
Y136082D01*
X299667D01*
X300956Y136826D01*
G75*
G02*
X300975Y136837I594J-1034D01*
G01*
G75*
G02*
X304243Y134929I1076J-1908D01*
G01*
G75*
G02*
X301704Y132766I-2191J0D01*
G01*
G75*
G02*
X299259Y129776I-2024J-840D01*
G01*
G75*
G02*
X296876Y126629I-1950J-1000D01*
G01*
G75*
G02*
X294386Y123487I-1938J-1022D01*
G01*
G75*
G02*
X291878Y120360I-1944J-1009D01*
G01*
G75*
G02*
X288869Y117419I-1932J-1032D01*
G01*
G75*
G02*
X288850Y117430I557J1013D01*
G01*
X288792Y117464D01*
Y111630D01*
X289481Y111231D01*
X292174D01*
Y112980D01*
X297819D01*
Y106947D01*
X292174D01*
Y108526D01*
X289481D01*
X289189Y108357D01*
Y104299D01*
X288792D01*
Y98398D01*
X283363D01*
Y74437D01*
G75*
G02*
X283023Y73620I-1154J0D01*
G01*
X273476Y64074D01*
X273099Y62665D01*
G75*
G02*
X268824Y62792I-2123J540D01*
G01*
X267550Y61519D01*
G75*
G02*
X266733Y61179I-817J814D01*
G01*
X258272D01*
G75*
G02*
X257455Y61519I0J1154D01*
G01*
X256544Y62429D01*
X252022D01*
G75*
G02*
X251205Y62769I0J1154D01*
G01*
X250294Y63679D01*
X240772D01*
G75*
G02*
X239955Y64019I0J1154D01*
G01*
X237809Y66165D01*
X228494D01*
X227206Y65420D01*
G75*
G02*
X227187Y65410I-594J1034D01*
G01*
G75*
G02*
X223919Y67318I-1076J1908D01*
G01*
G75*
G02*
X227187Y69226I2191J0D01*
G01*
G75*
G02*
X227206Y69216I-575J-1044D01*
G01*
X228494Y68472D01*
X230036D01*
G75*
G02*
X232739Y71847I1627J1467D01*
G01*
G75*
G02*
X232758Y71837I-575J-1044D01*
G01*
X234047Y71093D01*
X235622D01*
X238403Y73873D01*
G75*
G02*
X239220Y74213I817J-814D01*
G01*
X241087D01*
G75*
G02*
X241904Y73873I0J-1154D01*
G01*
X242688Y73089D01*
X257707D01*
X259448Y74831D01*
X252024D01*
Y83031D01*
X254794D01*
Y89142D01*
X254556Y89554D01*
X254150Y88851D01*
Y87153D01*
G75*
G02*
X253811Y86336I-1154J0D01*
G01*
X252839Y85365D01*
G75*
G02*
X252022Y85025I-817J814D01*
G01*
X243893D01*
G75*
G02*
X243076Y85365I0J1154D01*
G01*
X239187Y89253D01*
X232799D01*
X231510Y88509D01*
G75*
G02*
X231491Y88498I-594J1034D01*
G01*
G75*
G02*
X231380Y88440I-1077J1910D01*
G01*
X234002D01*
G75*
G02*
X234819Y88101I0J-1154D01*
G01*
X236938Y85982D01*
G75*
G02*
X237278Y85165I-814J-817D01*
G01*
Y82865D01*
G75*
G02*
X236124Y74830I-1154J-3935D01*
G01*
G75*
G02*
X234970Y82865I0J4100D01*
G01*
Y84687D01*
X233524Y86133D01*
X225797D01*
G75*
G02*
X224980Y86472I0J1154D01*
G01*
X221643Y89809D01*
G75*
G02*
X221304Y90626I814J817D01*
G01*
Y97152D01*
G75*
G02*
X221337Y97424I1153J0D01*
G01*
X221148Y97236D01*
Y91307D01*
G75*
G02*
X220809Y90491I-1154J0D01*
G01*
X218876Y88557D01*
G75*
G02*
X218059Y88218I-817J814D01*
G01*
X208724D01*
X207278Y86772D01*
Y85133D01*
X209649Y81025D01*
G75*
G02*
X208318Y75466I-3525J-2094D01*
G01*
X210951D01*
X212149Y79937D01*
G75*
G02*
X220224Y78930I3975J-1007D01*
G01*
G75*
G02*
X217131Y74956I-4100J0D01*
G01*
X212554Y73729D01*
X212323Y73498D01*
G75*
G02*
X211506Y73159I-817J814D01*
G01*
X202833D01*
G75*
G02*
X202016Y73498I0J1154D01*
G01*
X200771Y74744D01*
G75*
G02*
X200431Y75561I814J817D01*
G01*
Y87749D01*
G75*
G02*
X200771Y88566I1154J0D01*
G01*
X204263Y92058D01*
G75*
G02*
X205080Y92397I817J-814D01*
G01*
X216458D01*
X216595Y92534D01*
Y98400D01*
G75*
G02*
X216934Y99217I1154J0D01*
G01*
X224945Y107228D01*
G75*
G02*
X225985Y107883I1040J-499D01*
G01*
X235119D01*
X235848Y108304D01*
X235119Y108725D01*
X214078D01*
X212789Y107981D01*
G75*
G02*
X212770Y107970I-594J1034D01*
G01*
G75*
G02*
X209744Y110878I-1076J1908D01*
G01*
G75*
G02*
X207278Y113815I-422J2150D01*
G01*
G75*
G02*
X205249Y117205I-202J2182D01*
G01*
G75*
G02*
X202514Y119328I-544J2122D01*
G01*
G75*
G02*
X205781Y121236I2191J0D01*
G01*
G75*
G02*
X205800Y121225I-575J-1044D01*
G01*
X207089Y120481D01*
X235119D01*
X235701Y120818D01*
Y124137D01*
X235119Y124473D01*
X234263D01*
G75*
G02*
X233446Y124813I0J1154D01*
G01*
X231933Y126325D01*
X204843D01*
X203554Y125581D01*
G75*
G02*
X203535Y125570I-594J1034D01*
G01*
G75*
G02*
X200407Y128247I-1076J1908D01*
G01*
G75*
G02*
X197272Y130224I-944J1978D01*
G01*
G75*
G02*
X200540Y132133I2191J0D01*
G01*
G75*
G02*
X200559Y132122I-575J-1044D01*
G01*
X200839Y131961D01*
X200358Y132441D01*
X198353D01*
X197064Y131696D01*
G75*
G02*
X197045Y131686I-594J1034D01*
G01*
G75*
G02*
X194016Y132602I-1076J1908D01*
G01*
G75*
G02*
X193779Y132576I-236J1077D01*
G01*
X192187D01*
Y129028D01*
X186939D01*
Y132576D01*
X186526D01*
G75*
G02*
X185742Y132899I-4J1103D01*
G01*
X185544Y133097D01*
G75*
G02*
X185303Y134295I780J780D01*
G01*
G75*
G03*
X185401Y134800I-1251J505D01*
G01*
Y134800D01*
G75*
G03*
X184723Y135970I-1349J0D01*
G01*
G75*
G02*
X184169Y136927I549J957D01*
G01*
Y144988D01*
X179205D01*
Y151819D01*
X184169D01*
Y155472D01*
X179205D01*
Y162303D01*
X184235D01*
G75*
G02*
X184276Y162402I1037J-376D01*
G01*
X165896D01*
G75*
G02*
X165115Y162726I0J1103D01*
G01*
X163493Y164346D01*
G75*
G02*
X163169Y165127I779J781D01*
G01*
Y168742D01*
G75*
G02*
Y168744I367J1D01*
G01*
Y168744D01*
G75*
G02*
X163492Y169524I1103J0D01*
G01*
X164742Y170774D01*
G75*
G02*
X165524Y171097I780J-780D01*
G01*
X203826D01*
G75*
G02*
X204608Y170772I0J-1103D01*
G01*
X206093Y169287D01*
G75*
G02*
X206102Y169278I-780J-789D01*
G01*
G75*
G02*
X206111Y169269I-778J-786D01*
G01*
X206598Y168781D01*
X267481D01*
G75*
G02*
X267491Y168791I762J-752D01*
G01*
X267681Y168981D01*
G75*
G02*
X267690Y168990I786J-776D01*
G01*
Y172241D01*
G75*
G02*
X268015Y173023I1103J0D01*
G01*
X269009Y174017D01*
G75*
G02*
X269791Y174342I781J-778D01*
G01*
X277440D01*
G75*
G02*
X278220Y174019I0J-1103D01*
G01*
X279181Y173059D01*
G75*
G02*
X279506Y172278I-779J-781D01*
G01*
Y171913D01*
X284500D01*
Y165083D01*
X279506D01*
Y161709D01*
X284152D01*
Y156067D01*
X282307D01*
Y154805D01*
G75*
G02*
X281968Y153988I-1154J0D01*
G01*
X281097Y153117D01*
G75*
G02*
X281026Y153052I-819J812D01*
G01*
X276570Y148595D01*
X301263D01*
X304507Y151839D01*
G75*
G02*
X305324Y152178I817J-814D01*
G01*
X312848D01*
X314021Y152978D01*
X298776Y113378D02*
X305217D01*
Y106549D01*
X298776D01*
Y113378D01*
X241626Y78930D02*
G75*
G02*
X250622I4498J0D01*
G01*
G75*
G02*
X241626I-4498J0D01*
G01*
X226124Y83031D02*
G75*
G02*
X230224Y78930I0J-4100D01*
G01*
G75*
G02*
X226124Y74830I-4100J0D01*
G01*
G75*
G02*
X222024Y78930I0J4100D01*
G01*
G75*
G02*
X226124Y83031I4100J0D01*
G01*
X182335Y112094D02*
X188776D01*
Y105264D01*
X182335D01*
Y112094D01*
Y122094D02*
X188776D01*
Y115264D01*
X182335D01*
Y122094D01*
X180931Y144781D02*
G75*
G02*
X182034Y143679I0J-1102D01*
G01*
Y140972D01*
G75*
G02*
X181164Y139895I-1102J0D01*
G01*
Y137232D01*
X181561D01*
Y132370D01*
X181164D01*
Y129707D01*
G75*
G02*
X182034Y128630I-232J-1078D01*
G01*
Y122094D01*
G75*
G02*
X181378Y121087I-1102J0D01*
G01*
Y116272D01*
G75*
G02*
X182034Y115264I-447J-1008D01*
G01*
Y112094D01*
G75*
G02*
X181378Y111087I-1102J0D01*
G01*
Y106272D01*
G75*
G02*
X182034Y105264I-447J-1008D01*
G01*
Y104051D01*
G75*
G02*
X181711Y103272I-1102J0D01*
G01*
X180089Y101649D01*
G75*
G02*
X179308Y101326I-780J780D01*
G01*
X170824D01*
G75*
G02*
X170043Y101649I-1J1102D01*
G01*
X168420Y103272D01*
G75*
G02*
X168098Y104051I780J780D01*
G01*
Y142429D01*
G75*
G02*
X168420Y143208I1102J0D01*
G01*
X169670Y144458D01*
G75*
G02*
X170451Y144781I780J-780D01*
G01*
X180931D01*
X196993Y194335D02*
X202052D01*
Y184268D01*
X196993D01*
Y194335D01*
X206430Y182178D02*
G75*
G02*
X206713Y181102I-1909J-1077D01*
G01*
G75*
G02*
X202331I-2191J0D01*
G01*
G75*
G02*
X202614Y182178I2191J0D01*
G01*
G75*
G02*
X202624Y182197I1044J-575D01*
G01*
X203369Y183486D01*
Y183516D01*
X202704Y184667D01*
X202390D01*
Y193938D01*
X206654D01*
Y184667D01*
X206340D01*
X205676Y183516D01*
Y183486D01*
X206420Y182197D01*
G75*
G02*
X206430Y182178I-1034J-594D01*
G01*
X211430Y182090D02*
G75*
G02*
X211713Y181014I-1909J-1077D01*
G01*
G75*
G02*
X207331I-2191J0D01*
G01*
G75*
G02*
X207614Y182090I2191J0D01*
G01*
G75*
G02*
X207624Y182109I1044J-575D01*
G01*
X208369Y183398D01*
Y183516D01*
X207704Y184667D01*
X207390D01*
Y193938D01*
X211654D01*
Y184667D01*
X211340D01*
X210676Y183516D01*
Y183398D01*
X211420Y182109D01*
G75*
G02*
X211430Y182090I-1034J-594D01*
G01*
X216430D02*
G75*
G02*
X216713Y181014I-1909J-1077D01*
G01*
G75*
G02*
X212331I-2191J0D01*
G01*
G75*
G02*
X212614Y182090I2191J0D01*
G01*
G75*
G02*
X212624Y182109I1044J-575D01*
G01*
X213369Y183398D01*
Y183516D01*
X212704Y184667D01*
X212390D01*
Y193938D01*
X216654D01*
Y184667D01*
X216340D01*
X215676Y183516D01*
Y183398D01*
X216420Y182109D01*
G75*
G02*
X216430Y182090I-1034J-594D01*
G01*
X221430D02*
G75*
G02*
X221713Y181014I-1909J-1077D01*
G01*
G75*
G02*
X217331I-2191J0D01*
G01*
G75*
G02*
X217614Y182090I2191J0D01*
G01*
G75*
G02*
X217624Y182109I1044J-575D01*
G01*
X218369Y183398D01*
Y183516D01*
X217704Y184667D01*
X217390D01*
Y193938D01*
X221654D01*
Y184667D01*
X221340D01*
X220676Y183516D01*
Y183398D01*
X221420Y182109D01*
G75*
G02*
X221430Y182090I-1034J-594D01*
G01*
X226384Y182112D02*
G75*
G02*
X226679Y181014I-1897J-1098D01*
G01*
G75*
G02*
X222297I-2191J0D01*
G01*
G75*
G02*
X222619Y182157I2191J0D01*
G01*
X223369Y183407D01*
Y183516D01*
X222704Y184667D01*
X222390D01*
Y193938D01*
X226654D01*
Y184667D01*
X226340D01*
X225676Y183516D01*
Y183387D01*
X226384Y182112D01*
X231385Y182095D02*
G75*
G02*
X231671Y181014I-1906J-1081D01*
G01*
G75*
G02*
X227289I-2191J0D01*
G01*
G75*
G02*
X227618Y182169I2191J0D01*
G01*
X228369Y183409D01*
Y183516D01*
X227704Y184667D01*
X227390D01*
Y193938D01*
X231654D01*
Y184667D01*
X231340D01*
X230676Y183516D01*
Y183385D01*
X231385Y182095D01*
X236430Y182090D02*
G75*
G02*
X236713Y181014I-1909J-1077D01*
G01*
G75*
G02*
X232331I-2191J0D01*
G01*
G75*
G02*
X232614Y182090I2191J0D01*
G01*
G75*
G02*
X232624Y182109I1044J-575D01*
G01*
X233369Y183398D01*
Y183516D01*
X232704Y184667D01*
X232390D01*
Y193938D01*
X236654D01*
Y184667D01*
X236340D01*
X235676Y183516D01*
Y183398D01*
X236420Y182109D01*
G75*
G02*
X236430Y182090I-1034J-594D01*
G01*
X241430D02*
G75*
G02*
X241713Y181014I-1909J-1077D01*
G01*
G75*
G02*
X237331I-2191J0D01*
G01*
G75*
G02*
X237614Y182090I2191J0D01*
G01*
G75*
G02*
X237624Y182109I1044J-575D01*
G01*
X238369Y183398D01*
Y183516D01*
X237704Y184667D01*
X237390D01*
Y193938D01*
X241654D01*
Y184667D01*
X241340D01*
X240676Y183516D01*
Y183398D01*
X241420Y182109D01*
G75*
G02*
X241430Y182090I-1034J-594D01*
G01*
X246430D02*
G75*
G02*
X246713Y181014I-1909J-1077D01*
G01*
G75*
G02*
X242331I-2191J0D01*
G01*
G75*
G02*
X242614Y182090I2191J0D01*
G01*
G75*
G02*
X242624Y182109I1044J-575D01*
G01*
X243369Y183398D01*
Y183516D01*
X242704Y184667D01*
X242390D01*
Y193938D01*
X246654D01*
Y184667D01*
X246340D01*
X245676Y183516D01*
Y183398D01*
X246420Y182109D01*
G75*
G02*
X246430Y182090I-1034J-594D01*
G01*
X251430D02*
G75*
G02*
X251713Y181014I-1909J-1077D01*
G01*
G75*
G02*
X247331I-2191J0D01*
G01*
G75*
G02*
X247614Y182090I2191J0D01*
G01*
G75*
G02*
X247624Y182109I1044J-575D01*
G01*
X248369Y183398D01*
Y183516D01*
X247704Y184667D01*
X247390D01*
Y193938D01*
X251654D01*
Y184667D01*
X251340D01*
X250676Y183516D01*
Y183398D01*
X251420Y182109D01*
G75*
G02*
X251430Y182090I-1034J-594D01*
G01*
X256430Y182303D02*
G75*
G02*
X256713Y181227I-1909J-1077D01*
G01*
G75*
G02*
X252331I-2191J0D01*
G01*
G75*
G02*
X252614Y182303I2191J0D01*
G01*
G75*
G02*
X252624Y182322I1044J-575D01*
G01*
X253341Y183563D01*
X252704Y184667D01*
X252390D01*
Y193938D01*
X256654D01*
Y184667D01*
X256340D01*
X255703Y183563D01*
X256420Y182322D01*
G75*
G02*
X256430Y182303I-1034J-594D01*
G01*
X261430D02*
G75*
G02*
X261713Y181227I-1909J-1077D01*
G01*
G75*
G02*
X257331I-2191J0D01*
G01*
G75*
G02*
X257614Y182303I2191J0D01*
G01*
G75*
G02*
X257624Y182322I1044J-575D01*
G01*
X258341Y183563D01*
X257704Y184667D01*
X257390D01*
Y193938D01*
X261654D01*
Y184667D01*
X261340D01*
X260703Y183563D01*
X261420Y182322D01*
G75*
G02*
X261430Y182303I-1034J-594D01*
G01*
X262390Y193937D02*
X266654D01*
Y184665D01*
X262390D01*
Y193937D01*
X139772Y78642D02*
G36*
X139772Y78642D02*
Y48833D01*
X161913D01*
G75*
G02*
X162239Y49609I3236J-902D01*
G01*
X162636Y50297D01*
Y52690D01*
G75*
G02*
X165989Y56043I3352J0D01*
G01*
X175989D01*
G75*
G02*
X179341Y52690I0J-3352D01*
G01*
Y50297D01*
X179738Y49609D01*
G75*
G02*
X180064Y48833I-2910J-1678D01*
G01*
X182131D01*
X184835Y53516D01*
Y54470D01*
G75*
G02*
X185174Y55287I1154J0D01*
G01*
X188161Y58273D01*
G75*
G02*
X188881Y58608I819J-817D01*
G01*
X190177Y59356D01*
G75*
G02*
X190196Y59367I177J-293D01*
G01*
G75*
G02*
X193463Y57459I1076J-1909D01*
G01*
G75*
G02*
X190196Y55550I-2191J0D01*
G01*
G75*
G02*
X190177Y55561I158J304D01*
G01*
X189248Y56097D01*
X187142Y53992D01*
Y53516D01*
X189846Y48833D01*
X192131D01*
X194835Y53516D01*
Y54986D01*
X194082Y56263D01*
G75*
G02*
X194074Y56275I133J87D01*
G01*
G75*
G02*
X193778Y57376I1900J1102D01*
G01*
G75*
G02*
X198160I2191J0D01*
G01*
Y57376D01*
G75*
G02*
X197863Y56274I-2190J0D01*
G01*
X197142Y54998D01*
Y53516D01*
X199846Y48833D01*
X202131D01*
X204835Y53516D01*
Y54950D01*
X204091Y56239D01*
G75*
G02*
X204080Y56257I293J177D01*
G01*
G75*
G02*
X203798Y57334I1915J1078D01*
G01*
G75*
G02*
X208180I2191J0D01*
G01*
G75*
G02*
X207897Y56257I-2198J2D01*
G01*
G75*
G02*
X207886Y56239I-304J158D01*
G01*
X207142Y54950D01*
Y53516D01*
X209846Y48833D01*
X212131D01*
X214835Y53516D01*
Y55117D01*
X214091Y56406D01*
G75*
G02*
X214080Y56424I293J177D01*
G01*
G75*
G02*
X213798Y57501I1915J1078D01*
G01*
G75*
G02*
X218180I2191J0D01*
G01*
G75*
G02*
X217897Y56424I-2198J2D01*
G01*
G75*
G02*
X217886Y56406I-304J158D01*
G01*
X217142Y55117D01*
Y53516D01*
X219846Y48833D01*
X222131D01*
X224835Y53516D01*
Y55107D01*
X224076Y56375D01*
X224068Y56388D01*
G75*
G02*
X223764Y57500I1884J1112D01*
G01*
G75*
G02*
Y57501I2051J0D01*
G01*
G75*
G02*
X228146I2191J0D01*
G01*
G75*
G02*
X227876Y56448I-2191J0D01*
G01*
G75*
G02*
X227870Y56436I-199J102D01*
G01*
X227142Y55127D01*
Y53516D01*
X229846Y48833D01*
X232131D01*
X234835Y53516D01*
Y55241D01*
X234091Y56530D01*
G75*
G02*
X234080Y56549I293J177D01*
G01*
G75*
G02*
X233798Y57626I1915J1078D01*
G01*
G75*
G02*
X238180I2191J0D01*
G01*
G75*
G02*
X237897Y56549I-2198J2D01*
G01*
G75*
G02*
X237886Y56530I-304J158D01*
G01*
X237142Y55241D01*
Y53516D01*
X239846Y48833D01*
X242131D01*
X244835Y53516D01*
Y54950D01*
X244091Y56239D01*
G75*
G02*
X244080Y56257I293J177D01*
G01*
G75*
G02*
X243798Y57334I1915J1078D01*
G01*
G75*
G02*
X248180I2191J0D01*
G01*
G75*
G02*
X247897Y56257I-2198J2D01*
G01*
G75*
G02*
X247886Y56239I-304J158D01*
G01*
X247142Y54950D01*
Y53516D01*
X249846Y48833D01*
X252131D01*
X254835Y53516D01*
Y55117D01*
X254091Y56406D01*
G75*
G02*
X254080Y56424I293J177D01*
G01*
G75*
G02*
X253798Y57501I1915J1078D01*
G01*
G75*
G02*
X258180I2191J0D01*
G01*
G75*
G02*
X257897Y56424I-2198J2D01*
G01*
G75*
G02*
X257886Y56406I-304J158D01*
G01*
X257142Y55117D01*
Y53516D01*
X259846Y48833D01*
X262131D01*
X264835Y53516D01*
Y55117D01*
X264091Y56406D01*
G75*
G02*
X264080Y56424I293J177D01*
G01*
G75*
G02*
X263798Y57501I1915J1078D01*
G01*
G75*
G02*
X268180I2191J0D01*
G01*
G75*
G02*
X267897Y56424I-2198J2D01*
G01*
G75*
G02*
X267886Y56406I-304J158D01*
G01*
X267142Y55117D01*
Y53516D01*
X269846Y48833D01*
X272131D01*
X274835Y53516D01*
Y55117D01*
X274091Y56406D01*
G75*
G02*
X274080Y56424I293J177D01*
G01*
G75*
G02*
X273798Y57501I1915J1078D01*
G01*
G75*
G02*
X278180I2191J0D01*
G01*
G75*
G02*
X277897Y56424I-2198J2D01*
G01*
G75*
G02*
X277886Y56406I-304J158D01*
G01*
X277142Y55117D01*
Y53516D01*
X279846Y48833D01*
X282131D01*
X284835Y53516D01*
Y55117D01*
X284091Y56406D01*
G75*
G02*
X284080Y56424I293J177D01*
G01*
G75*
G02*
X283798Y57501I1915J1078D01*
G01*
G75*
G02*
X288180I2191J0D01*
G01*
G75*
G02*
X287897Y56424I-2198J2D01*
G01*
G75*
G02*
X287886Y56406I-304J158D01*
G01*
X287142Y55117D01*
Y53516D01*
X289846Y48833D01*
X292131D01*
X294835Y53516D01*
Y55117D01*
X294091Y56406D01*
G75*
G02*
X294080Y56424I293J177D01*
G01*
G75*
G02*
X293798Y57501I1915J1078D01*
G01*
G75*
G02*
X298180I2191J0D01*
G01*
G75*
G02*
X297897Y56424I-2198J2D01*
G01*
G75*
G02*
X297886Y56406I-304J158D01*
G01*
X297142Y55117D01*
Y53516D01*
X299846Y48833D01*
X302131D01*
X304835Y53516D01*
Y55366D01*
X304091Y56655D01*
G75*
G02*
X304080Y56674I293J177D01*
G01*
G75*
G02*
X303798Y57750I1915J1078D01*
G01*
G75*
G02*
X308180I2191J0D01*
G01*
G75*
G02*
X307897Y56674I-2198J2D01*
G01*
G75*
G02*
X307886Y56655I-304J158D01*
G01*
X307142Y55366D01*
Y53516D01*
X309846Y48833D01*
X322131D01*
X324835Y53516D01*
Y54908D01*
X324039Y56069D01*
G75*
G02*
X323637Y57334I1792J1267D01*
G01*
G75*
G02*
X328019I2191J0D01*
G01*
G75*
G02*
X327788Y56356I-2196J2D01*
G01*
X327142Y55004D01*
Y53516D01*
X329846Y48833D01*
X372131D01*
X374835Y53516D01*
Y53557D01*
X373460Y54932D01*
X370520D01*
X369231Y54188D01*
G75*
G02*
X369213Y54178I-177J293D01*
G01*
G75*
G02*
X365945Y56086I-1076J1909D01*
G01*
G75*
G02*
X369213Y57994I2191J0D01*
G01*
G75*
G02*
X369231Y57983I-158J-304D01*
G01*
X370520Y57239D01*
X373938D01*
G75*
G02*
X374755Y56900I0J-1154D01*
G01*
X376803Y54852D01*
G75*
G02*
X377142Y54035I-814J-817D01*
G01*
Y53516D01*
X379846Y48833D01*
X392098D01*
Y78642D01*
X383333D01*
G75*
G02*
X386644Y71161I-6793J-7480D01*
G01*
G75*
G02*
X366435I-10104J0D01*
G01*
G75*
G02*
X369747Y78642I10105J0D01*
G01*
X283363D01*
Y74437D01*
G75*
G02*
X283023Y73620I-1154J0D01*
G01*
X273476Y64074D01*
X273099Y62665D01*
G75*
G02*
X268824Y62792I-2123J540D01*
G01*
X267550Y61519D01*
G75*
G02*
X266733Y61179I-817J814D01*
G01*
X258272D01*
G75*
G02*
X257455Y61519I0J1154D01*
G01*
X256544Y62429D01*
X252022D01*
G75*
G02*
X251205Y62769I0J1154D01*
G01*
X250294Y63679D01*
X240772D01*
G75*
G02*
X239955Y64019I0J1154D01*
G01*
X237809Y66165D01*
X228494D01*
X227206Y65420D01*
G75*
G02*
X227187Y65410I-177J293D01*
G01*
G75*
G02*
X223919Y67318I-1076J1909D01*
G01*
G75*
G02*
X227187Y69226I2191J0D01*
G01*
G75*
G02*
X227206Y69216I-158J-304D01*
G01*
X228494Y68472D01*
X230036D01*
G75*
G02*
X229472Y69939I1627J1468D01*
G01*
G75*
G02*
X232739Y71847I2191J0D01*
G01*
G75*
G02*
X232758Y71837I-158J-304D01*
G01*
X234047Y71093D01*
X235622D01*
X238403Y73873D01*
G75*
G02*
X239220Y74213I817J-814D01*
G01*
X241087D01*
G75*
G02*
X241904Y73873I0J-1154D01*
G01*
X242688Y73089D01*
X257707D01*
X259448Y74831D01*
X252024D01*
Y78642D01*
X250613D01*
G75*
G02*
X241635I-4489J289D01*
G01*
X240214D01*
G75*
G02*
X236124Y74830I-4090J289D01*
G01*
G75*
G02*
X232034Y78642I0J4100D01*
G01*
X230214D01*
G75*
G02*
X226124Y74830I-4090J288D01*
G01*
G75*
G02*
X222034Y78642I0J4100D01*
G01*
X220214D01*
G75*
G02*
X217131Y74956I-4091J289D01*
G01*
X212554Y73729D01*
X212323Y73498D01*
G75*
G02*
X211506Y73159I-817J814D01*
G01*
X202833D01*
G75*
G02*
X202016Y73498I0J1154D01*
G01*
X200771Y74744D01*
G75*
G02*
X200431Y75561I814J817D01*
G01*
Y78642D01*
X139772D01*
G37*
X210215D02*
G36*
X210215Y78642D02*
G75*
G02*
X208318Y75466I-4090J289D01*
G01*
X210951D01*
X211802Y78642D01*
X210215D01*
G37*
X139772Y97836D02*
G36*
X139772Y97836D02*
Y78642D01*
X200431D01*
Y87749D01*
G75*
G02*
X200771Y88566I1154J0D01*
G01*
X204263Y92058D01*
G75*
G02*
X205080Y92397I817J-814D01*
G01*
X216458D01*
X216595Y92534D01*
Y97836D01*
X161890D01*
G75*
G02*
X165542Y90061I-6452J-7775D01*
G01*
Y90061D01*
G75*
G02*
X145333I-10104J0D01*
G01*
Y90061D01*
G75*
G02*
X148985Y97836I10104J0D01*
G01*
X139772D01*
G37*
X207278Y86772D02*
G36*
X207278Y86772D02*
Y85133D01*
X209649Y81025D01*
G75*
G02*
X210224Y78930I-3525J-2094D01*
G01*
G75*
G02*
X210215Y78642I-4101J-5D01*
G01*
X211802D01*
X212149Y79937D01*
G75*
G02*
X220224Y78930I3975J-1007D01*
G01*
G75*
G02*
X220214Y78642I-4102J1D01*
G01*
X222034D01*
G75*
G02*
X222024Y78930I4088J289D01*
G01*
G75*
G02*
Y78931I5013J1D01*
G01*
G75*
G02*
X226124Y83031I4100J0D01*
G01*
G75*
G02*
X230224Y78931I0J-4100D01*
G01*
G75*
G02*
Y78930I-5013J0D01*
G01*
G75*
G02*
X230214Y78642I-4098J1D01*
G01*
X232034D01*
G75*
G02*
X232024Y78930I4092J290D01*
G01*
G75*
G02*
X234970Y82865I4100J0D01*
G01*
Y84687D01*
X233524Y86133D01*
X225797D01*
G75*
G02*
X224980Y86472I0J1154D01*
G01*
X221643Y89809D01*
G75*
G02*
X221304Y90626I814J817D01*
G01*
Y97152D01*
G75*
G02*
X221337Y97424I1165J-2D01*
G01*
X221148Y97236D01*
Y91307D01*
G75*
G02*
X220809Y90491I-1154J0D01*
G01*
X218876Y88557D01*
G75*
G02*
X218059Y88218I-817J814D01*
G01*
X208724D01*
X207278Y86772D01*
G37*
X231491Y88498D02*
G36*
X231491Y88498D02*
G75*
G02*
X231380Y88440I-992J1750D01*
G01*
X234002D01*
G75*
G02*
X234819Y88101I0J-1154D01*
G01*
X236938Y85982D01*
G75*
G02*
X237278Y85165I-814J-817D01*
G01*
Y82865D01*
G75*
G02*
X240224Y78930I-1154J-3935D01*
G01*
G75*
G02*
X240214Y78642I-4102J1D01*
G01*
X241635D01*
G75*
G02*
X241626Y78930I4489J291D01*
G01*
G75*
G02*
X250622I4498J0D01*
G01*
G75*
G02*
X250613Y78642I-4499J3D01*
G01*
X252024D01*
Y83031D01*
X254794D01*
Y89142D01*
X254556Y89554D01*
X254150Y88851D01*
Y87153D01*
G75*
G02*
X253811Y86336I-1154J0D01*
G01*
X252839Y85365D01*
G75*
G02*
X252022Y85025I-817J814D01*
G01*
X243893D01*
G75*
G02*
X243076Y85365I0J1154D01*
G01*
X239187Y89253D01*
X232799D01*
X231510Y88509D01*
G75*
G02*
X231491Y88498I-177J293D01*
G01*
G37*
X283363Y97836D02*
G36*
X283363Y97836D02*
Y78642D01*
X369747D01*
G75*
G02*
X370448Y79223I6793J-7480D01*
G01*
G75*
G02*
X366396Y86909I5267J7687D01*
G01*
G75*
G02*
X385030I9317J0D01*
G01*
G75*
G02*
X381754Y79817I-9318J1D01*
G01*
G75*
G02*
X383333Y78642I-5215J-8656D01*
G01*
X392098D01*
Y97836D01*
X283363D01*
G37*
X139772Y109963D02*
G36*
X139772Y109963D02*
Y97836D01*
X148985D01*
G75*
G02*
X151009Y99143I6452J-7776D01*
G01*
G75*
G02*
X147144Y106596I5256J7454D01*
G01*
G75*
G02*
X147789Y109963I9120J0D01*
G01*
X139772D01*
G37*
X160750Y98656D02*
G36*
X160750Y98656D02*
G75*
G02*
X161890Y97836I-5313J-8596D01*
G01*
X216595D01*
Y98400D01*
G75*
G02*
X216934Y99217I1154J0D01*
G01*
X224945Y107228D01*
G75*
G02*
X225985Y107883I1040J-498D01*
G01*
X235119D01*
X235848Y108304D01*
X235119Y108725D01*
X214078D01*
X212789Y107981D01*
G75*
G02*
X212770Y107970I-177J293D01*
G01*
G75*
G02*
X209503Y109879I-1076J1908D01*
G01*
G75*
G02*
X209505Y109963I2187J2D01*
G01*
X188776D01*
Y105264D01*
X182335D01*
Y109963D01*
X181378D01*
Y106272D01*
G75*
G02*
X182034Y105264I-447J-1008D01*
G01*
Y104051D01*
Y104051D01*
G75*
G02*
X181711Y103272I-1102J0D01*
G01*
X180089Y101649D01*
G75*
G02*
X179308Y101326I-780J782D01*
G01*
X170824D01*
G75*
G02*
X170043Y101649I0J1105D01*
G01*
X168420Y103272D01*
G75*
G02*
X168098Y104051I779J779D01*
G01*
Y104051D01*
Y109963D01*
X164740D01*
G75*
G02*
X165384Y106596I-8476J-3368D01*
G01*
G75*
G02*
X160750Y98656I-9120J0D01*
G01*
G37*
X283363Y98398D02*
G36*
X283363Y98398D02*
Y97836D01*
X392098D01*
Y99672D01*
G75*
G03*
X389848Y101083I-2250J-1090D01*
G01*
X358272D01*
G75*
G02*
X355772Y103583I0J2500D01*
G01*
Y109963D01*
X305217D01*
Y106549D01*
X298776D01*
Y109963D01*
X297819D01*
Y106947D01*
X292174D01*
Y108526D01*
X289481D01*
X289189Y108357D01*
Y104299D01*
X288792D01*
Y98398D01*
X283363D01*
G37*
X139772Y118679D02*
G36*
X139772Y118679D02*
Y109963D01*
X147789D01*
G75*
G02*
X164740I8476J-3367D01*
G01*
X168098D01*
Y118679D01*
X139772D01*
G37*
X181378Y111087D02*
G36*
X181378Y111087D02*
Y109963D01*
X182335D01*
Y112094D01*
X188776D01*
Y109963D01*
X209505D01*
G75*
G02*
X209744Y110878I2189J-85D01*
G01*
G75*
G02*
X207132Y113028I-422J2150D01*
G01*
G75*
G02*
X207278Y113815I2190J0D01*
G01*
G75*
G02*
X204885Y115996I-202J2181D01*
G01*
G75*
G02*
X205249Y117205I2191J0D01*
G01*
G75*
G02*
X202612Y118679I-544J2123D01*
G01*
X188776D01*
Y115264D01*
X182335D01*
Y118679D01*
X181378D01*
Y116272D01*
G75*
G02*
X182034Y115264I-447J-1008D01*
G01*
Y112094D01*
G75*
G02*
X181378Y111087I-1103J0D01*
G01*
G37*
X288792Y117464D02*
G36*
X288792Y117464D02*
Y111630D01*
X289481Y111231D01*
X292174D01*
Y112980D01*
X297819D01*
Y109963D01*
X298776D01*
Y113378D01*
X305217D01*
Y109963D01*
X355772D01*
Y118679D01*
X292038D01*
G75*
G02*
X288869Y117419I-2093J648D01*
G01*
G75*
G02*
X288850Y117430I158J304D01*
G01*
X288792Y117464D01*
G37*
X139772Y189301D02*
G36*
X139772Y189301D02*
Y118679D01*
X168098D01*
Y142429D01*
Y142429D01*
G75*
G02*
X168420Y143208I1102J0D01*
G01*
X169670Y144458D01*
G75*
G02*
X170451Y144781I780J-782D01*
G01*
X180931D01*
G75*
G02*
X182034Y143679I0J-1102D01*
G01*
Y140972D01*
Y140972D01*
G75*
G02*
X181164Y139895I-1102J0D01*
G01*
Y137232D01*
X181561D01*
Y132370D01*
X181164D01*
Y129707D01*
G75*
G02*
X182034Y128630I-233J-1078D01*
G01*
Y122094D01*
G75*
G02*
X181378Y121087I-1103J0D01*
G01*
Y118679D01*
X182335D01*
Y122094D01*
X188776D01*
Y118679D01*
X202612D01*
G75*
G02*
X202514Y119328I2093J648D01*
G01*
G75*
G02*
X205781Y121236I2191J0D01*
G01*
G75*
G02*
X205800Y121225I-158J-304D01*
G01*
X207089Y120481D01*
X235119D01*
X235701Y120818D01*
Y124137D01*
X235119Y124473D01*
X234263D01*
G75*
G02*
X233446Y124813I0J1154D01*
G01*
X231933Y126325D01*
X204843D01*
X203554Y125581D01*
G75*
G02*
X203535Y125570I-177J293D01*
G01*
G75*
G02*
X200268Y127479I-1076J1908D01*
G01*
G75*
G02*
X200407Y128247I2191J0D01*
G01*
G75*
G02*
X197272Y130224I-943J1978D01*
G01*
G75*
G02*
X200540Y132133I2191J0D01*
G01*
G75*
G02*
X200559Y132122I-158J-304D01*
G01*
X200839Y131961D01*
X200358Y132441D01*
X198353D01*
X197064Y131696D01*
G75*
G02*
X197045Y131686I-177J293D01*
G01*
G75*
G02*
X194016Y132602I-1076J1908D01*
G01*
G75*
G02*
X193779Y132576I-235J1063D01*
G01*
X192187D01*
Y129028D01*
X186939D01*
Y132576D01*
X186526D01*
G75*
G02*
X185742Y132899I-4J1104D01*
G01*
X185544Y133097D01*
G75*
G02*
X185221Y133877I781J780D01*
G01*
G75*
G02*
X185303Y134295I1103J0D01*
G01*
G75*
G03*
X185401Y134800I-1258J506D01*
G01*
Y134800D01*
G75*
G03*
X184723Y135970I-1350J-1D01*
G01*
G75*
G02*
X184169Y136927I549J957D01*
G01*
Y144988D01*
X179205D01*
Y151819D01*
X184169D01*
Y155472D01*
X179205D01*
Y162303D01*
X184235D01*
G75*
G02*
X184276Y162402I903J-320D01*
G01*
X165896D01*
G75*
G02*
X165115Y162726I0J1104D01*
G01*
X163493Y164346D01*
G75*
G02*
X163169Y165127I780J781D01*
G01*
Y168742D01*
Y168744D01*
Y168744D01*
G75*
G02*
X163492Y169524I1103J0D01*
G01*
X164742Y170774D01*
G75*
G02*
X165524Y171097I780J-781D01*
G01*
X203826D01*
G75*
G02*
X204608Y170772I1J-1102D01*
G01*
X206093Y169287D01*
X206102Y169278D01*
G75*
G02*
X206111Y169269I-39J-48D01*
G01*
X206598Y168781D01*
X267481D01*
X267491Y168791D01*
X267681Y168981D01*
X267690Y168990D01*
Y172241D01*
G75*
G02*
Y172242I1410J0D01*
G01*
G75*
G02*
X268015Y173023I1102J0D01*
G01*
X269009Y174017D01*
G75*
G02*
X269791Y174342I781J-777D01*
G01*
X277440D01*
G75*
G02*
X278220Y174019I0J-1101D01*
G01*
X279181Y173059D01*
G75*
G02*
X279506Y172278I-780J-781D01*
G01*
Y171913D01*
X284500D01*
Y165083D01*
X279506D01*
Y161709D01*
X284152D01*
Y156067D01*
X282307D01*
Y154805D01*
G75*
G02*
X281968Y153988I-1154J0D01*
G01*
X281097Y153117D01*
G75*
G02*
X281026Y153052I-856J851D01*
G01*
X276570Y148595D01*
X301263D01*
X304507Y151839D01*
G75*
G02*
X305324Y152178I817J-814D01*
G01*
X312848D01*
X314021Y152978D01*
G75*
G02*
X317463Y151179I1251J-1799D01*
G01*
G75*
G02*
X314305Y149213I-2191J0D01*
G01*
X314139Y149293D01*
G75*
G02*
X314227Y148679I-2103J-614D01*
G01*
G75*
G02*
X311446Y146569I-2191J0D01*
G01*
G75*
G02*
X311481Y146181I-2130J-388D01*
G01*
G75*
G02*
Y146179I-2374J-1D01*
G01*
G75*
G02*
X308214Y144270I-2191J0D01*
G01*
G75*
G02*
X308195Y144281I158J304D01*
G01*
X307799Y144509D01*
G75*
G02*
X307963Y143679I-2028J-830D01*
G01*
G75*
G02*
X304696Y141770I-2191J0D01*
G01*
G75*
G02*
X304677Y141781I158J304D01*
G01*
X303388Y142525D01*
X273389D01*
X273388Y142524D01*
X280227D01*
Y136082D01*
X299667D01*
X300956Y136826D01*
G75*
G02*
X300975Y136837I177J-293D01*
G01*
G75*
G02*
X304243Y134929I1076J-1909D01*
G01*
G75*
G02*
X301704Y132766I-2191J0D01*
G01*
G75*
G02*
X301871Y131926I-2024J-840D01*
G01*
G75*
G02*
X299259Y129776I-2191J0D01*
G01*
G75*
G02*
X299500Y128776I-1950J-1000D01*
G01*
G75*
G02*
X296876Y126629I-2191J0D01*
G01*
G75*
G02*
X297128Y125607I-1938J-1022D01*
G01*
G75*
G02*
X294386Y123487I-2191J0D01*
G01*
G75*
G02*
X294633Y122477I-1944J-1009D01*
G01*
G75*
G02*
X291878Y120360I-2191J0D01*
G01*
G75*
G02*
X292136Y119328I-1933J-1032D01*
G01*
G75*
G02*
X292038Y118679I-2191J0D01*
G01*
X355772D01*
Y189301D01*
X266654D01*
Y184665D01*
X262390D01*
Y189301D01*
X261654D01*
Y184667D01*
X261340D01*
X260703Y183563D01*
X261420Y182322D01*
G75*
G02*
X261430Y182303I-293J-177D01*
G01*
G75*
G02*
X261713Y181227I-1915J-1078D01*
G01*
G75*
G02*
X257331I-2191J0D01*
G01*
G75*
G02*
X257614Y182303I2198J-2D01*
G01*
G75*
G02*
X257624Y182322I304J-158D01*
G01*
X258341Y183563D01*
X257704Y184667D01*
X257390D01*
Y189301D01*
X256654D01*
Y184667D01*
X256340D01*
X255703Y183563D01*
X256420Y182322D01*
G75*
G02*
X256430Y182303I-293J-177D01*
G01*
G75*
G02*
X256713Y181227I-1915J-1078D01*
G01*
G75*
G02*
X252331I-2191J0D01*
G01*
G75*
G02*
X252614Y182303I2198J-2D01*
G01*
G75*
G02*
X252624Y182322I304J-158D01*
G01*
X253341Y183563D01*
X252704Y184667D01*
X252390D01*
Y189301D01*
X251654D01*
Y184667D01*
X251340D01*
X250676Y183516D01*
Y183398D01*
X251420Y182109D01*
G75*
G02*
X251430Y182090I-293J-177D01*
G01*
G75*
G02*
X251713Y181014I-1915J-1078D01*
G01*
G75*
G02*
X247331I-2191J0D01*
G01*
G75*
G02*
X247614Y182090I2198J-2D01*
G01*
G75*
G02*
X247624Y182109I304J-158D01*
G01*
X248369Y183398D01*
Y183516D01*
X247704Y184667D01*
X247390D01*
Y189301D01*
X246654D01*
Y184667D01*
X246340D01*
X245676Y183516D01*
Y183398D01*
X246420Y182109D01*
G75*
G02*
X246430Y182090I-293J-177D01*
G01*
G75*
G02*
X246713Y181014I-1915J-1078D01*
G01*
G75*
G02*
X242331I-2191J0D01*
G01*
G75*
G02*
X242614Y182090I2198J-2D01*
G01*
G75*
G02*
X242624Y182109I304J-158D01*
G01*
X243369Y183398D01*
Y183516D01*
X242704Y184667D01*
X242390D01*
Y189301D01*
X241654D01*
Y184667D01*
X241340D01*
X240676Y183516D01*
Y183398D01*
X241420Y182109D01*
G75*
G02*
X241430Y182090I-293J-177D01*
G01*
G75*
G02*
X241713Y181014I-1915J-1078D01*
G01*
G75*
G02*
X237331I-2191J0D01*
G01*
G75*
G02*
X237614Y182090I2198J-2D01*
G01*
G75*
G02*
X237624Y182109I304J-158D01*
G01*
X238369Y183398D01*
Y183516D01*
X237704Y184667D01*
X237390D01*
Y189301D01*
X236654D01*
Y184667D01*
X236340D01*
X235676Y183516D01*
Y183398D01*
X236420Y182109D01*
G75*
G02*
X236430Y182090I-293J-177D01*
G01*
G75*
G02*
X236713Y181014I-1915J-1078D01*
G01*
G75*
G02*
X232331I-2191J0D01*
G01*
G75*
G02*
X232614Y182090I2198J-2D01*
G01*
G75*
G02*
X232624Y182109I304J-158D01*
G01*
X233369Y183398D01*
Y183516D01*
X232704Y184667D01*
X232390D01*
Y189301D01*
X231654D01*
Y184667D01*
X231340D01*
X230676Y183516D01*
Y183385D01*
X231385Y182095D01*
G75*
G02*
X231671Y181015I-1902J-1080D01*
G01*
G75*
G02*
Y181014I-2051J0D01*
G01*
G75*
G02*
X227289I-2191J0D01*
G01*
Y181014D01*
G75*
G02*
X227618Y182169I2189J0D01*
G01*
X228369Y183409D01*
Y183516D01*
X227704Y184667D01*
X227390D01*
Y189301D01*
X226654D01*
Y184667D01*
X226340D01*
X225676Y183516D01*
Y183387D01*
X226384Y182112D01*
G75*
G02*
X226679Y181015I-1891J-1096D01*
G01*
G75*
G02*
Y181014I-2256J-1D01*
G01*
G75*
G02*
X222297I-2191J0D01*
G01*
Y181014D01*
G75*
G02*
X222619Y182157I2190J0D01*
G01*
X223369Y183407D01*
Y183516D01*
X222704Y184667D01*
X222390D01*
Y189301D01*
X221654D01*
Y184667D01*
X221340D01*
X220676Y183516D01*
Y183398D01*
X221420Y182109D01*
G75*
G02*
X221430Y182090I-293J-177D01*
G01*
G75*
G02*
X221713Y181014I-1915J-1078D01*
G01*
G75*
G02*
X217331I-2191J0D01*
G01*
G75*
G02*
X217614Y182090I2198J-2D01*
G01*
G75*
G02*
X217624Y182109I304J-158D01*
G01*
X218369Y183398D01*
Y183516D01*
X217704Y184667D01*
X217390D01*
Y189301D01*
X216654D01*
Y184667D01*
X216340D01*
X215676Y183516D01*
Y183398D01*
X216420Y182109D01*
G75*
G02*
X216430Y182090I-293J-177D01*
G01*
G75*
G02*
X216713Y181014I-1915J-1078D01*
G01*
G75*
G02*
X212331I-2191J0D01*
G01*
G75*
G02*
X212614Y182090I2198J-2D01*
G01*
G75*
G02*
X212624Y182109I304J-158D01*
G01*
X213369Y183398D01*
Y183516D01*
X212704Y184667D01*
X212390D01*
Y189301D01*
X211654D01*
Y184667D01*
X211340D01*
X210676Y183516D01*
Y183398D01*
X211420Y182109D01*
G75*
G02*
X211430Y182090I-293J-177D01*
G01*
G75*
G02*
X211713Y181014I-1915J-1078D01*
G01*
G75*
G02*
X207331I-2191J0D01*
G01*
G75*
G02*
X207614Y182090I2198J-2D01*
G01*
G75*
G02*
X207624Y182109I304J-158D01*
G01*
X208369Y183398D01*
Y183516D01*
X207704Y184667D01*
X207390D01*
Y189301D01*
X206654D01*
Y184667D01*
X206340D01*
X205676Y183516D01*
Y183486D01*
X206420Y182197D01*
G75*
G02*
X206430Y182178I-293J-177D01*
G01*
G75*
G02*
X206713Y181102I-1915J-1078D01*
G01*
G75*
G02*
X202331I-2191J0D01*
G01*
G75*
G02*
X202614Y182178I2198J-2D01*
G01*
G75*
G02*
X202624Y182197I304J-158D01*
G01*
X203369Y183486D01*
Y183516D01*
X202704Y184667D01*
X202390D01*
Y189301D01*
X202052D01*
Y184268D01*
X196993D01*
Y189301D01*
X139772D01*
G37*
Y206315D02*
G36*
X139772Y206315D02*
Y189301D01*
X196993D01*
Y194335D01*
X202052D01*
Y189301D01*
X202390D01*
Y193938D01*
X206654D01*
Y189301D01*
X207390D01*
Y193938D01*
X211654D01*
Y189301D01*
X212390D01*
Y193938D01*
X216654D01*
Y189301D01*
X217390D01*
Y193938D01*
X221654D01*
Y189301D01*
X222390D01*
Y193938D01*
X226654D01*
Y189301D01*
X227390D01*
Y193938D01*
X231654D01*
Y189301D01*
X232390D01*
Y193938D01*
X236654D01*
Y189301D01*
X237390D01*
Y193938D01*
X241654D01*
Y189301D01*
X242390D01*
Y193938D01*
X246654D01*
Y189301D01*
X247390D01*
Y193938D01*
X251654D01*
Y189301D01*
X252390D01*
Y193938D01*
X256654D01*
Y189301D01*
X257390D01*
Y193938D01*
X261654D01*
Y189301D01*
X262390D01*
Y193937D01*
X266654D01*
Y189301D01*
X355772D01*
Y206083D01*
G75*
G03*
X354362Y208333I-2500J0D01*
G01*
X141819D01*
G75*
G03*
X139772Y206315I1431J-3500D01*
G01*
G37*
X142281Y8169D02*
G75*
G02*
X137001Y13449I0J5280D01*
G01*
Y204833D01*
G75*
G02*
X143251Y211083I6250J0D01*
G01*
X388594D01*
G75*
G02*
X394844Y204833I0J-6250D01*
G01*
Y13667D01*
G75*
G02*
X389347Y8169I-5497J0D01*
G01*
X142281D01*
X164272Y168744D02*
Y165127D01*
X165894Y163505D01*
X165896D01*
G75*
G02*
X165897I1J-325D01*
G01*
X185289D01*
X185742Y163959D01*
G75*
G02*
X186524Y164281I780J-780D01*
G01*
X195770D01*
G75*
G02*
X196552Y163959I2J-1103D01*
G01*
X197006Y163505D01*
X197406D01*
X197397Y163113D01*
X197802Y162709D01*
G75*
G02*
X198125Y161929I-780J-780D01*
G01*
Y161928D01*
G75*
G02*
Y161926I-364J-1D01*
G01*
Y157140D01*
X227889D01*
X228318Y157883D01*
X227624Y159083D01*
G75*
G02*
X227614Y159102I1034J594D01*
G01*
G75*
G02*
X227331Y160179I1909J1077D01*
G01*
G75*
G02*
X231713I2191J0D01*
G01*
G75*
G02*
X231430Y159102I-2191J0D01*
G01*
G75*
G02*
X231420Y159083I-1044J575D01*
G01*
X230726Y157883D01*
X231156Y157140D01*
X237889D01*
X238318Y157883D01*
X237624Y159083D01*
G75*
G02*
X237614Y159102I1034J594D01*
G01*
G75*
G02*
X237331Y160179I1909J1077D01*
G01*
G75*
G02*
X241713I2191J0D01*
G01*
G75*
G02*
X241430Y159102I-2191J0D01*
G01*
G75*
G02*
X241420Y159083I-1044J575D01*
G01*
X240726Y157883D01*
X241156Y157140D01*
X242889D01*
X243318Y157883D01*
X242624Y159083D01*
G75*
G02*
X242614Y159102I1034J594D01*
G01*
G75*
G02*
X242331Y160179I1909J1077D01*
G01*
G75*
G02*
X246713I2191J0D01*
G01*
G75*
G02*
X246430Y159102I-2191J0D01*
G01*
G75*
G02*
X246420Y159083I-1044J575D01*
G01*
X245726Y157883D01*
X246156Y157140D01*
X247889D01*
X248347Y157934D01*
X247764Y159302D01*
G75*
G02*
X247581Y160179I2008J877D01*
G01*
G75*
G02*
X251963I2191J0D01*
G01*
Y160178D01*
G75*
G02*
X251536Y158879I-2191J0D01*
G01*
G75*
G02*
X251524Y158863I-917J680D01*
G01*
X250753Y157837D01*
X251156Y157140D01*
X261993D01*
Y157217D01*
X267052D01*
Y148066D01*
X267286D01*
X268725Y149504D01*
G75*
G02*
X269542Y149843I817J-814D01*
G01*
X274555D01*
X278403Y153691D01*
Y156067D01*
X278156D01*
Y161709D01*
X278403D01*
Y172278D01*
X277441Y173239D01*
X277440D01*
G75*
G02*
X277439I0J325D01*
G01*
X269791D01*
X268793Y172241D01*
Y168993D01*
G75*
G02*
Y168991I-367J-1D01*
G01*
Y168990D01*
G75*
G02*
Y168987I-1039J-1D01*
G01*
Y168533D01*
X268478Y168219D01*
G75*
G02*
X268470Y168210I-789J744D01*
G01*
X268261Y168002D01*
G75*
G02*
X268253Y167994I-752J781D01*
G01*
X267938Y167679D01*
X267484D01*
G75*
G02*
X267479I-2J1193D01*
G01*
X206142D01*
X205827Y167994D01*
G75*
G02*
X205818Y168003I767J776D01*
G01*
X205330Y168490D01*
G75*
G02*
X205315Y168506I764J780D01*
G01*
X203826Y169994D01*
X165524D01*
G75*
G02*
X165523I0J325D01*
G01*
X165522D01*
X164272Y168744D01*
X270758Y162106D02*
X277550D01*
Y155669D01*
X270758D01*
Y162106D01*
X271059Y171913D02*
X277500D01*
Y165083D01*
X271059D01*
Y171913D01*
X198125Y158888D02*
G36*
X198125Y158888D02*
Y157140D01*
X227889D01*
X228318Y157883D01*
X227737Y158888D01*
X198125D01*
G37*
X230726Y157883D02*
G36*
X230726Y157883D02*
X231156Y157140D01*
X237889D01*
X238318Y157883D01*
X237737Y158888D01*
X231307D01*
X230726Y157883D01*
G37*
X240726D02*
G36*
X240726Y157883D02*
X241156Y157140D01*
X242889D01*
X243318Y157883D01*
X242737Y158888D01*
X241307D01*
X240726Y157883D01*
G37*
X245726D02*
G36*
X245726Y157883D02*
X246156Y157140D01*
X247889D01*
X248347Y157934D01*
X247941Y158888D01*
X246307D01*
X245726Y157883D01*
G37*
X250753Y157837D02*
G36*
X250753Y157837D02*
X251156Y157140D01*
X261993D01*
Y157217D01*
X267052D01*
Y148316D01*
X267536D01*
X268725Y149504D01*
G75*
G02*
X269542Y149843I817J-814D01*
G01*
X274555D01*
X278153Y153441D01*
Y158888D01*
X277550D01*
Y155669D01*
X270758D01*
Y158888D01*
X251543D01*
G75*
G02*
X251536Y158879I-1776J1285D01*
G01*
G75*
G02*
X251524Y158863I-154J104D01*
G01*
X250753Y157837D01*
G37*
X164522Y168498D02*
G36*
X164522Y168498D02*
Y164877D01*
X165894Y163505D01*
X165896D01*
X165897D01*
X185289D01*
X185742Y163959D01*
G75*
G02*
X186524Y164281I780J-781D01*
G01*
X195770D01*
G75*
G02*
X196552Y163959I2J-1104D01*
G01*
X197006Y163505D01*
X197406D01*
X197397Y163113D01*
X197802Y162709D01*
G75*
G02*
X198125Y161929I-780J-780D01*
G01*
Y161928D01*
Y161926D01*
Y158888D01*
X227737D01*
X227624Y159083D01*
G75*
G02*
X227614Y159102I293J177D01*
G01*
G75*
G02*
X227331Y160179I1915J1078D01*
G01*
G75*
G02*
X231713I2191J0D01*
G01*
G75*
G02*
X231430Y159102I-2198J2D01*
G01*
G75*
G02*
X231420Y159083I-304J158D01*
G01*
X231307Y158888D01*
X237737D01*
X237624Y159083D01*
G75*
G02*
X237614Y159102I293J177D01*
G01*
G75*
G02*
X237331Y160179I1915J1078D01*
G01*
G75*
G02*
X241713I2191J0D01*
G01*
G75*
G02*
X241430Y159102I-2198J2D01*
G01*
G75*
G02*
X241420Y159083I-304J158D01*
G01*
X241307Y158888D01*
X242737D01*
X242624Y159083D01*
G75*
G02*
X242614Y159102I293J177D01*
G01*
G75*
G02*
X242331Y160179I1915J1078D01*
G01*
G75*
G02*
X246713I2191J0D01*
G01*
G75*
G02*
X246430Y159102I-2198J2D01*
G01*
G75*
G02*
X246420Y159083I-304J158D01*
G01*
X246307Y158888D01*
X247941D01*
X247764Y159302D01*
G75*
G02*
X247581Y160179I2015J878D01*
G01*
G75*
G02*
X251963I2191J0D01*
G01*
Y160178D01*
G75*
G02*
X251543Y158888I-2191J0D01*
G01*
X270758D01*
Y162106D01*
X277550D01*
Y158888D01*
X278153D01*
Y168498D01*
X277500D01*
Y165083D01*
X271059D01*
Y168498D01*
X268757D01*
X268478Y168219D01*
G75*
G02*
X268470Y168210I-91J79D01*
G01*
X268261Y168002D01*
G75*
G02*
X268253Y167994I-87J83D01*
G01*
X267938Y167679D01*
X267484D01*
X267479D01*
X206142D01*
X205827Y167994D01*
G75*
G02*
X205818Y168003I48J57D01*
G01*
X205330Y168490D01*
G75*
G02*
X205322Y168498I142J157D01*
G01*
X164522D01*
G37*
Y168994D02*
G36*
X164522Y168994D02*
Y168498D01*
X205322D01*
G75*
G02*
X205315Y168506I150J149D01*
G01*
X203826Y169994D01*
X165524D01*
X165523D01*
X165522D01*
X164522Y168994D01*
G37*
X268793Y168533D02*
G36*
X268793Y168533D02*
X268757Y168498D01*
X271059D01*
Y171913D01*
X277500D01*
Y168498D01*
X278153D01*
Y172528D01*
X277691Y172989D01*
X269541D01*
X268793Y172241D01*
Y168993D01*
Y168991D01*
Y168990D01*
Y168987D01*
Y168533D01*
G37*
X169200Y142429D02*
Y104051D01*
X170822Y102429D01*
X179309D01*
X180931Y104051D01*
Y105264D01*
X175335D01*
Y112094D01*
X180931D01*
Y115264D01*
X175335D01*
Y122094D01*
X180931D01*
Y128630D01*
X175518D01*
Y133492D01*
X175916D01*
Y136110D01*
X175518D01*
Y140972D01*
X180931D01*
Y143679D01*
X170450D01*
X169200Y142429D01*
G36*
X169200Y142429D02*
Y104051D01*
X170822Y102429D01*
X179309D01*
X180931Y104051D01*
Y105264D01*
X175335D01*
Y112094D01*
X180931D01*
Y115264D01*
X175335D01*
Y122094D01*
X180931D01*
Y128630D01*
X175518D01*
Y133492D01*
X175916D01*
Y136110D01*
X175518D01*
Y140972D01*
X180931D01*
Y143679D01*
X170450D01*
X169200Y142429D01*
G37*
X185272Y161929D02*
Y136927D01*
G75*
G02*
X186324Y133877I-1220J-2127D01*
G01*
X186522Y133679D01*
X193780D01*
G75*
G02*
X197045Y135502I2189J-85D01*
G01*
G75*
G02*
X197064Y135492I-575J-1044D01*
G01*
X198353Y134748D01*
X200836D01*
G75*
G02*
X201653Y134408I0J-1154D01*
G01*
X202982Y133080D01*
X235119D01*
X236099Y133646D01*
Y133959D01*
X243611D01*
Y124228D01*
X244300Y123830D01*
X245261D01*
X246568Y124592D01*
G75*
G02*
X249928Y121224I1258J-2105D01*
G01*
Y104025D01*
G75*
G02*
X250278Y102762I-2102J-1263D01*
G01*
G75*
G02*
X245374I-2452J0D01*
G01*
G75*
G02*
X245724Y104025I2452J0D01*
G01*
Y120863D01*
X245267Y121125D01*
X244300D01*
X243611Y120726D01*
Y101263D01*
X247531Y97343D01*
X247813D01*
Y97343D01*
X253715D01*
Y97740D01*
X257445D01*
Y106178D01*
X259945Y108678D01*
X280882D01*
Y111538D01*
X280300Y111875D01*
X279974D01*
X278685Y111131D01*
G75*
G02*
X278667Y111120I-594J1034D01*
G01*
G75*
G02*
X275399Y113028I-1076J1908D01*
G01*
G75*
G02*
X278053Y115170I2191J0D01*
G01*
G75*
G02*
X281280Y117996I1908J1077D01*
G01*
Y133775D01*
X278528D01*
G75*
G02*
X277711Y134115I0J1154D01*
G01*
X277379Y134446D01*
G75*
G02*
X277239Y134614I814J819D01*
G01*
X272613D01*
Y135012D01*
X260412D01*
Y135013D01*
X258180D01*
Y135012D01*
X244664D01*
Y141179D01*
X198272D01*
X197022Y142429D01*
Y161929D01*
X195772Y163179D01*
X186522D01*
X185272Y161929D01*
X186205Y151819D02*
X192642D01*
Y144988D01*
X186205D01*
Y151819D01*
X186542Y140972D02*
X192585D01*
Y136110D01*
X186542D01*
Y140972D01*
X186205Y162303D02*
X192642D01*
Y155472D01*
X186205D01*
Y162303D01*
X185522Y138541D02*
G36*
X185522Y138541D02*
Y136763D01*
G75*
G02*
X186504Y134800I-1470J-1962D01*
G01*
G75*
G02*
X186324Y133877I-2452J0D01*
G01*
X186522Y133679D01*
X193780D01*
G75*
G02*
X197045Y135502I2189J-85D01*
G01*
G75*
G02*
X197064Y135492I-158J-304D01*
G01*
X198353Y134748D01*
X200836D01*
G75*
G02*
X201653Y134408I0J-1154D01*
G01*
X202982Y133080D01*
X235119D01*
X236099Y133646D01*
Y133959D01*
X243611D01*
Y124228D01*
X244300Y123830D01*
X245261D01*
X246568Y124592D01*
G75*
G02*
X250278Y122487I1258J-2105D01*
G01*
G75*
G02*
X249928Y121224I-2453J0D01*
G01*
Y104025D01*
G75*
G02*
X250278Y102763I-2098J-1261D01*
G01*
G75*
G02*
Y102762I-2820J0D01*
G01*
G75*
G02*
X245374I-2452J0D01*
G01*
G75*
G02*
Y102763I2820J1D01*
G01*
G75*
G02*
X245724Y104025I2448J0D01*
G01*
Y120863D01*
X245267Y121125D01*
X244300D01*
X243611Y120726D01*
Y101263D01*
X247281Y97593D01*
X253715D01*
Y97740D01*
X257445D01*
Y106178D01*
X259945Y108678D01*
X280882D01*
Y111538D01*
X280300Y111875D01*
X279974D01*
X278685Y111131D01*
G75*
G02*
X278667Y111120I-177J293D01*
G01*
G75*
G02*
X275399Y113028I-1076J1909D01*
G01*
Y113029D01*
G75*
G02*
X278053Y115170I2191J0D01*
G01*
G75*
G02*
X277770Y116246I1908J1076D01*
G01*
G75*
G02*
X281030Y118159I2191J0D01*
G01*
Y133775D01*
X278528D01*
G75*
G02*
X277711Y134115I0J1154D01*
G01*
X277379Y134446D01*
G75*
G02*
X277239Y134614I792J800D01*
G01*
X272613D01*
Y135012D01*
X260412D01*
Y135013D01*
X258180D01*
Y135012D01*
X244664D01*
Y138541D01*
X192585D01*
Y136110D01*
X186542D01*
Y138541D01*
X185522D01*
G37*
Y148404D02*
G36*
X185522Y148404D02*
Y138541D01*
X186542D01*
Y140972D01*
X192585D01*
Y138541D01*
X244664D01*
Y141179D01*
X198272D01*
X197022Y142429D01*
Y148404D01*
X192642D01*
Y144988D01*
X186205D01*
Y148404D01*
X185522D01*
G37*
Y158888D02*
G36*
X185522Y158888D02*
Y148404D01*
X186205D01*
Y151819D01*
X192642D01*
Y148404D01*
X197022D01*
Y158888D01*
X192642D01*
Y155472D01*
X186205D01*
Y158888D01*
X185522D01*
G37*
Y162179D02*
G36*
X185522Y162179D02*
Y158888D01*
X186205D01*
Y162303D01*
X192642D01*
Y158888D01*
X197022D01*
Y161929D01*
X196022Y162929D01*
X186272D01*
X185522Y162179D01*
G37*
X258548Y97740D02*
G75*
G02*
X258474Y97343I-1103J0D01*
G01*
X260014D01*
Y97740D01*
X264876D01*
Y97343D01*
X279432D01*
Y102393D01*
G75*
G02*
X279771Y103210I1154J0D01*
G01*
X280882Y104322D01*
Y107575D01*
X260402D01*
X258548Y105721D01*
Y97740D01*
G36*
X258548Y97740D02*
G75*
G02*
X258474Y97343I-1103J0D01*
G01*
X260014D01*
Y97740D01*
X264876D01*
Y97343D01*
X279432D01*
Y102393D01*
G75*
G02*
X279771Y103210I1154J0D01*
G01*
X280882Y104322D01*
Y107575D01*
X260402D01*
X258548Y105721D01*
Y97740D01*
G37*
D02*
D14*
X142022Y59833D03*
Y86083D03*
Y111083D03*
Y136083D03*
Y161083D03*
Y186083D03*
Y206083D03*
X165772Y186083D03*
Y206083D03*
X167272Y166750D03*
X172272Y138679D03*
X172445Y108716D03*
Y118700D03*
Y166750D03*
X180931Y90781D03*
X184052Y134800D03*
X190772Y186083D03*
Y206083D03*
X190791Y118363D03*
X190916Y90781D03*
Y108628D03*
X215772Y171083D03*
Y206083D03*
X228272Y171083D03*
X240772Y206083D03*
X243272Y171083D03*
X247826Y102762D03*
Y122487D03*
X260772Y171083D03*
X262489Y99148D03*
Y104833D03*
X265772Y206083D03*
X273272Y102333D03*
X281772Y150562D03*
X285772Y66083D03*
Y91156D03*
X290758Y150562D03*
Y159048D03*
X290772Y206083D03*
X315772Y156083D03*
Y181083D03*
Y206083D03*
X320772Y81083D03*
Y106083D03*
Y131083D03*
X335772Y66083D03*
Y206083D03*
X353272Y106083D03*
Y131083D03*
Y156083D03*
Y181083D03*
Y206083D03*
X360772Y66083D03*
Y98583D03*
X387980Y66082D03*
X389522Y98583D03*
D02*
D15*
X247826Y122487D02*
Y102762D01*
D02*
D16*
X191272Y57459D03*
X195969Y57376D03*
Y133594D03*
X199463Y130224D03*
Y144784D03*
X202459Y127479D03*
X204522Y144784D03*
Y181102D03*
X204705Y119328D03*
X205989Y57334D03*
X207076Y115997D03*
X209323Y113028D03*
X209522Y144784D03*
Y181014D03*
X211694Y109879D03*
X214522Y144784D03*
Y181014D03*
X215989Y57501D03*
X219522Y144784D03*
Y181014D03*
X224488D03*
X225772Y96777D03*
X225955Y57501D03*
X226110Y67318D03*
X228168Y93907D03*
X229480Y181014D03*
X229522Y160179D03*
X230415Y90407D03*
X231663Y69939D03*
X234522Y181014D03*
X235989Y57626D03*
X239522Y160179D03*
Y181014D03*
X240274Y70688D03*
X242645Y67333D03*
X244522Y160179D03*
Y181014D03*
X245989Y57334D03*
X249522Y181014D03*
X249772Y160179D03*
X253272Y66083D03*
X254522Y181227D03*
X255989Y57501D03*
X258870Y65077D03*
X259522Y181227D03*
X265989Y57501D03*
Y65077D03*
X270976Y63205D03*
X275989Y57501D03*
X277590Y113028D03*
X279961Y116246D03*
X285989Y57501D03*
X289946Y119328D03*
X292442Y122477D03*
X294938Y125607D03*
X295989Y57501D03*
X297309Y128776D03*
X299680Y131926D03*
X302052Y134929D03*
X305772Y143679D03*
X305989Y57750D03*
X309290Y146179D03*
X312036Y148679D03*
X315272Y151179D03*
X325828Y57334D03*
X368136Y56086D03*
D02*
D17*
X145989Y30217D03*
X155989D03*
X165989D03*
X185989D03*
X195989D03*
X205989D03*
X215989D03*
X225989D03*
X235989D03*
X245989D03*
X255989D03*
X265989D03*
X275989D03*
X285989D03*
X295989D03*
X305989D03*
X315989D03*
X325989D03*
X335989D03*
X345989D03*
X355989D03*
X365989D03*
X375989D03*
X385989D03*
D02*
D18*
X175989Y33169D03*
D02*
D84*
X185989Y53207D02*
X182943Y47933D01*
X189034D01*
X185989Y53207D01*
G36*
X185989Y53207D02*
X182943Y47933D01*
X189034D01*
X185989Y53207D01*
G37*
X189197Y57459D02*
X190754Y58357D01*
G75*
G03*
Y56560I519J-898D01*
G01*
X189197Y57459D01*
G36*
X189197Y57459D02*
X190754Y58357D01*
G75*
G03*
Y56560I519J-898D01*
G01*
X189197Y57459D01*
G37*
X191272D02*
X188978D01*
X185989Y54470D01*
Y30217D01*
X195969Y133594D02*
X200836D01*
X202504Y131926D01*
X239855D01*
X195989Y30217D02*
Y57356D01*
X195969Y57376D01*
X195989Y53207D02*
X192943Y47933D01*
X199034D01*
X195989Y53207D01*
G36*
X195989Y53207D02*
X192943Y47933D01*
X199034D01*
X195989Y53207D01*
G37*
Y55301D02*
X195076Y56849D01*
G75*
G03*
X196872Y56866I893J527D01*
G01*
X195989Y55301D01*
G36*
X195989Y55301D02*
X195076Y56849D01*
G75*
G03*
X196872Y56866I893J527D01*
G01*
X195989Y55301D01*
G37*
X198044Y133594D02*
X196487Y132696D01*
G75*
G03*
Y134493I-519J898D01*
G01*
X198044Y133594D01*
G36*
X198044Y133594D02*
X196487Y132696D01*
G75*
G03*
Y134493I-519J898D01*
G01*
X198044Y133594D01*
G37*
X199463Y130224D02*
X233709D01*
X235157Y128776D01*
X239855D01*
X199522Y146706D02*
X200500Y148401D01*
X198544D01*
X199522Y146706D01*
G36*
X199522Y146706D02*
X200500Y148401D01*
X198544D01*
X199522Y146706D01*
G37*
Y146858D02*
X200376Y145277D01*
G75*
G03*
X198580Y145328I-913J-493D01*
G01*
X199522Y146858D01*
G36*
X199522Y146858D02*
X200376Y145277D01*
G75*
G03*
X198580Y145328I-913J-493D01*
G01*
X199522Y146858D01*
G37*
Y152184D02*
Y144843D01*
X199463Y144784D01*
X201538Y130224D02*
X199982Y129326D01*
G75*
G03*
Y131123I-519J898D01*
G01*
X201538Y130224D01*
G36*
X201538Y130224D02*
X199982Y129326D01*
G75*
G03*
Y131123I-519J898D01*
G01*
X201538Y130224D01*
G37*
X202459Y127479D02*
X232411D01*
X234263Y125627D01*
X239855D01*
X204522Y144784D02*
Y152184D01*
Y146706D02*
X205500Y148401D01*
X203544D01*
X204522Y146706D01*
G36*
X204522Y146706D02*
X205500Y148401D01*
X203544D01*
X204522Y146706D01*
G37*
Y146859D02*
X205420Y145303D01*
G75*
G03*
X203624I-898J-519D01*
G01*
X204522Y146859D01*
G36*
X204522Y146859D02*
X205420Y145303D01*
G75*
G03*
X203624I-898J-519D01*
G01*
X204522Y146859D01*
G37*
Y181102D02*
Y189302D01*
Y183177D02*
X205420Y181620D01*
G75*
G03*
X203624I-898J-519D01*
G01*
X204522Y183177D01*
G36*
X204522Y183177D02*
X205420Y181620D01*
G75*
G03*
X203624I-898J-519D01*
G01*
X204522Y183177D01*
G37*
Y183824D02*
X205500Y185519D01*
X203544D01*
X204522Y183824D01*
G36*
X204522Y183824D02*
X205500Y185519D01*
X203544D01*
X204522Y183824D01*
G37*
X204533Y127479D02*
X202977Y126580D01*
G75*
G03*
Y128377I-519J898D01*
G01*
X204533Y127479D01*
G36*
X204533Y127479D02*
X202977Y126580D01*
G75*
G03*
Y128377I-519J898D01*
G01*
X204533Y127479D01*
G37*
X205989Y30217D02*
Y57334D01*
Y53207D02*
X202943Y47933D01*
X209034D01*
X205989Y53207D01*
G36*
X205989Y53207D02*
X202943Y47933D01*
X209034D01*
X205989Y53207D01*
G37*
Y55259D02*
X205090Y56815D01*
G75*
G03*
X206887I898J519D01*
G01*
X205989Y55259D01*
G36*
X205989Y55259D02*
X205090Y56815D01*
G75*
G03*
X206887I898J519D01*
G01*
X205989Y55259D01*
G37*
X206124Y84824D02*
X208676Y80404D01*
G75*
G03*
X203572I-2552J-1473D01*
G01*
X206124Y84824D01*
G36*
X206124Y84824D02*
X208676Y80404D01*
G75*
G03*
X203572I-2552J-1473D01*
G01*
X206124Y84824D01*
G37*
X206780Y119328D02*
X205224Y118429D01*
G75*
G03*
Y120226I-519J898D01*
G01*
X206780Y119328D01*
G36*
X206780Y119328D02*
X205224Y118429D01*
G75*
G03*
Y120226I-519J898D01*
G01*
X206780Y119328D01*
G37*
X209143Y116178D02*
X207671Y115147D01*
G75*
G03*
X207515Y116937I-595J850D01*
G01*
X209143Y116178D01*
G36*
X209143Y116178D02*
X207671Y115147D01*
G75*
G03*
X207515Y116937I-595J850D01*
G01*
X209143Y116178D01*
G37*
X209522Y144784D02*
Y152184D01*
Y146706D02*
X210500Y148401D01*
X208544D01*
X209522Y146706D01*
G36*
X209522Y146706D02*
X210500Y148401D01*
X208544D01*
X209522Y146706D01*
G37*
Y146859D02*
X210420Y145303D01*
G75*
G03*
X208624I-898J-519D01*
G01*
X209522Y146859D01*
G36*
X209522Y146859D02*
X210420Y145303D01*
G75*
G03*
X208624I-898J-519D01*
G01*
X209522Y146859D01*
G37*
Y181014D02*
Y189302D01*
Y183089D02*
X210420Y181532D01*
G75*
G03*
X208624I-898J-519D01*
G01*
X209522Y183089D01*
G36*
X209522Y183089D02*
X210420Y181532D01*
G75*
G03*
X208624I-898J-519D01*
G01*
X209522Y183089D01*
G37*
Y183824D02*
X210500Y185519D01*
X208544D01*
X209522Y183824D01*
G36*
X209522Y183824D02*
X210500Y185519D01*
X208544D01*
X209522Y183824D01*
G37*
X211398Y113028D02*
X209841Y112130D01*
G75*
G03*
Y113927I-519J898D01*
G01*
X211398Y113028D01*
G36*
X211398Y113028D02*
X209841Y112130D01*
G75*
G03*
Y113927I-519J898D01*
G01*
X211398Y113028D01*
G37*
X211957Y74763D02*
X213278Y79693D01*
G75*
G03*
X216887Y76084I2846J-763D01*
G01*
X211957Y74763D01*
G36*
X211957Y74763D02*
X213278Y79693D01*
G75*
G03*
X216887Y76084I2846J-763D01*
G01*
X211957Y74763D01*
G37*
X213769Y109879D02*
X212213Y108980D01*
G75*
G03*
Y110777I-519J898D01*
G01*
X213769Y109879D01*
G36*
X213769Y109879D02*
X212213Y108980D01*
G75*
G03*
Y110777I-519J898D01*
G01*
X213769Y109879D01*
G37*
X214522Y144784D02*
Y152184D01*
Y146706D02*
X215500Y148401D01*
X213544D01*
X214522Y146706D01*
G36*
X214522Y146706D02*
X215500Y148401D01*
X213544D01*
X214522Y146706D01*
G37*
Y146859D02*
X215420Y145303D01*
G75*
G03*
X213624I-898J-519D01*
G01*
X214522Y146859D01*
G36*
X214522Y146859D02*
X215420Y145303D01*
G75*
G03*
X213624I-898J-519D01*
G01*
X214522Y146859D01*
G37*
Y181014D02*
Y189302D01*
Y183089D02*
X215420Y181532D01*
G75*
G03*
X213624I-898J-519D01*
G01*
X214522Y183089D01*
G36*
X214522Y183089D02*
X215420Y181532D01*
G75*
G03*
X213624I-898J-519D01*
G01*
X214522Y183089D01*
G37*
Y183824D02*
X215500Y185519D01*
X213544D01*
X214522Y183824D01*
G36*
X214522Y183824D02*
X215500Y185519D01*
X213544D01*
X214522Y183824D01*
G37*
X215989Y53207D02*
X212943Y47933D01*
X219034D01*
X215989Y53207D01*
G36*
X215989Y53207D02*
X212943Y47933D01*
X219034D01*
X215989Y53207D01*
G37*
Y55426D02*
X215090Y56982D01*
G75*
G03*
X216887I898J519D01*
G01*
X215989Y55426D01*
G36*
X215989Y55426D02*
X215090Y56982D01*
G75*
G03*
X216887I898J519D01*
G01*
X215989Y55426D01*
G37*
Y57501D02*
Y30217D01*
X216124Y78930D02*
X211506Y74313D01*
X202833D01*
X201585Y75561D01*
Y87749D01*
X205080Y91244D01*
X216936D01*
X217748Y92056D01*
Y98400D01*
X225985Y106637D01*
Y106729D01*
X239855D01*
X219522Y144784D02*
Y152184D01*
Y146706D02*
X220500Y148401D01*
X218544D01*
X219522Y146706D01*
G36*
X219522Y146706D02*
X220500Y148401D01*
X218544D01*
X219522Y146706D01*
G37*
Y146859D02*
X220420Y145303D01*
G75*
G03*
X218624I-898J-519D01*
G01*
X219522Y146859D01*
G36*
X219522Y146859D02*
X220420Y145303D01*
G75*
G03*
X218624I-898J-519D01*
G01*
X219522Y146859D01*
G37*
Y181014D02*
Y189302D01*
Y183089D02*
X220420Y181532D01*
G75*
G03*
X218624I-898J-519D01*
G01*
X219522Y183089D01*
G36*
X219522Y183089D02*
X220420Y181532D01*
G75*
G03*
X218624I-898J-519D01*
G01*
X219522Y183089D01*
G37*
Y183824D02*
X220500Y185519D01*
X218544D01*
X219522Y183824D01*
G36*
X219522Y183824D02*
X220500Y185519D01*
X218544D01*
X219522Y183824D01*
G37*
X224522Y146706D02*
X225500Y148401D01*
X223544D01*
X224522Y146706D01*
G36*
X224522Y146706D02*
X225500Y148401D01*
X223544D01*
X224522Y146706D01*
G37*
Y183088D02*
X225394Y181517D01*
G75*
G03*
X223598Y181547I-907J-504D01*
G01*
X224522Y183088D01*
G36*
X224522Y183088D02*
X225394Y181517D01*
G75*
G03*
X223598Y181547I-907J-504D01*
G01*
X224522Y183088D01*
G37*
Y183824D02*
X225500Y185519D01*
X223544D01*
X224522Y183824D01*
G36*
X224522Y183824D02*
X225500Y185519D01*
X223544D01*
X224522Y183824D01*
G37*
Y189302D02*
Y181048D01*
X224488Y181014D01*
X225955Y57501D02*
X225989Y57467D01*
Y30217D01*
Y53207D02*
X222943Y47933D01*
X229034D01*
X225989Y53207D01*
G36*
X225989Y53207D02*
X222943Y47933D01*
X229034D01*
X225989Y53207D01*
G37*
Y55426D02*
X225065Y56968D01*
G75*
G03*
X226862Y56997I890J533D01*
G01*
X225989Y55426D01*
G36*
X225989Y55426D02*
X225065Y56968D01*
G75*
G03*
X226862Y56997I890J533D01*
G01*
X225989Y55426D01*
G37*
X227847Y96777D02*
X226291Y95879D01*
G75*
G03*
Y97676I-519J898D01*
G01*
X227847Y96777D01*
G36*
X227847Y96777D02*
X226291Y95879D01*
G75*
G03*
Y97676I-519J898D01*
G01*
X227847Y96777D01*
G37*
X228185Y67318D02*
X226629Y66420D01*
G75*
G03*
Y68217I-519J898D01*
G01*
X228185Y67318D01*
G36*
X228185Y67318D02*
X226629Y66420D01*
G75*
G03*
Y68217I-519J898D01*
G01*
X228185Y67318D01*
G37*
X229522Y152184D02*
Y160179D01*
Y157662D02*
X228544Y155968D01*
X230500D01*
X229522Y157662D01*
G36*
X229522Y157662D02*
X228544Y155968D01*
X230500D01*
X229522Y157662D01*
G37*
Y158104D02*
X228624Y159660D01*
G75*
G03*
X230420I898J519D01*
G01*
X229522Y158104D01*
G36*
X229522Y158104D02*
X228624Y159660D01*
G75*
G03*
X230420I898J519D01*
G01*
X229522Y158104D01*
G37*
Y183088D02*
X230389Y181514D01*
G75*
G03*
X228592Y181550I-909J-500D01*
G01*
X229522Y183088D01*
G36*
X229522Y183088D02*
X230389Y181514D01*
G75*
G03*
X228592Y181550I-909J-500D01*
G01*
X229522Y183088D01*
G37*
Y183824D02*
X230500Y185519D01*
X228544D01*
X229522Y183824D01*
G36*
X229522Y183824D02*
X230500Y185519D01*
X228544D01*
X229522Y183824D01*
G37*
Y189302D02*
Y181056D01*
X229480Y181014D01*
X230243Y93907D02*
X228687Y93008D01*
G75*
G03*
Y94805I-519J898D01*
G01*
X230243Y93907D01*
G36*
X230243Y93907D02*
X228687Y93008D01*
G75*
G03*
Y94805I-519J898D01*
G01*
X230243Y93907D01*
G37*
X232489Y90407D02*
X230933Y89508D01*
G75*
G03*
Y91305I-519J898D01*
G01*
X232489Y90407D01*
G36*
X232489Y90407D02*
X230933Y89508D01*
G75*
G03*
Y91305I-519J898D01*
G01*
X232489Y90407D01*
G37*
X233737Y69939D02*
X232181Y69041D01*
G75*
G03*
Y70837I-519J898D01*
G01*
X233737Y69939D01*
G36*
X233737Y69939D02*
X232181Y69041D01*
G75*
G03*
Y70837I-519J898D01*
G01*
X233737Y69939D01*
G37*
X234522Y146706D02*
X235500Y148401D01*
X233544D01*
X234522Y146706D01*
G36*
X234522Y146706D02*
X235500Y148401D01*
X233544D01*
X234522Y146706D01*
G37*
Y152184D02*
Y146232D01*
X235595Y145159D01*
X253650D01*
X256146Y142663D01*
Y138769D01*
X234522Y183089D02*
X235420Y181532D01*
G75*
G03*
X233624I-898J-519D01*
G01*
X234522Y183089D01*
G36*
X234522Y183089D02*
X235420Y181532D01*
G75*
G03*
X233624I-898J-519D01*
G01*
X234522Y183089D01*
G37*
Y183824D02*
X235500Y185519D01*
X233544D01*
X234522Y183824D01*
G36*
X234522Y183824D02*
X235500Y185519D01*
X233544D01*
X234522Y183824D01*
G37*
Y189302D02*
Y181014D01*
X235427Y100430D02*
X236951Y99550D01*
Y101310D01*
X235427Y100430D01*
G36*
X235427Y100430D02*
X236951Y99550D01*
Y101310D01*
X235427Y100430D01*
G37*
Y103580D02*
X236951Y102700D01*
Y104459D01*
X235427Y103580D01*
G36*
X235427Y103580D02*
X236951Y102700D01*
Y104459D01*
X235427Y103580D01*
G37*
Y106729D02*
X236951Y105849D01*
Y107609D01*
X235427Y106729D01*
G36*
X235427Y106729D02*
X236951Y105849D01*
Y107609D01*
X235427Y106729D01*
G37*
Y109879D02*
X236951Y108999D01*
Y110759D01*
X235427Y109879D01*
G36*
X235427Y109879D02*
X236951Y108999D01*
Y110759D01*
X235427Y109879D01*
G37*
Y113028D02*
X236951Y112148D01*
Y113908D01*
X235427Y113028D01*
G36*
X235427Y113028D02*
X236951Y112148D01*
Y113908D01*
X235427Y113028D01*
G37*
Y116178D02*
X236951Y115298D01*
Y117058D01*
X235427Y116178D01*
G36*
X235427Y116178D02*
X236951Y115298D01*
Y117058D01*
X235427Y116178D01*
G37*
Y119328D02*
X236951Y118448D01*
Y120207D01*
X235427Y119328D01*
G36*
X235427Y119328D02*
X236951Y118448D01*
Y120207D01*
X235427Y119328D01*
G37*
Y125627D02*
X236951Y124747D01*
Y126507D01*
X235427Y125627D01*
G36*
X235427Y125627D02*
X236951Y124747D01*
Y126507D01*
X235427Y125627D01*
G37*
Y128776D02*
X236951Y127896D01*
Y129656D01*
X235427Y128776D01*
G36*
X235427Y128776D02*
X236951Y127896D01*
Y129656D01*
X235427Y128776D01*
G37*
Y131926D02*
X236951Y131046D01*
Y132806D01*
X235427Y131926D01*
G36*
X235427Y131926D02*
X236951Y131046D01*
Y132806D01*
X235427Y131926D01*
G37*
X235989Y30217D02*
Y57626D01*
Y53207D02*
X232943Y47933D01*
X239034D01*
X235989Y53207D01*
G36*
X235989Y53207D02*
X232943Y47933D01*
X239034D01*
X235989Y53207D01*
G37*
Y55551D02*
X235090Y57107D01*
G75*
G03*
X236887I898J519D01*
G01*
X235989Y55551D01*
G36*
X235989Y55551D02*
X235090Y57107D01*
G75*
G03*
X236887I898J519D01*
G01*
X235989Y55551D01*
G37*
X239522Y152184D02*
Y160179D01*
Y157662D02*
X238544Y155968D01*
X240500D01*
X239522Y157662D01*
G36*
X239522Y157662D02*
X238544Y155968D01*
X240500D01*
X239522Y157662D01*
G37*
Y158104D02*
X238624Y159660D01*
G75*
G03*
X240420I898J519D01*
G01*
X239522Y158104D01*
G36*
X239522Y158104D02*
X238624Y159660D01*
G75*
G03*
X240420I898J519D01*
G01*
X239522Y158104D01*
G37*
Y183089D02*
X240420Y181532D01*
G75*
G03*
X238624I-898J-519D01*
G01*
X239522Y183089D01*
G36*
X239522Y183089D02*
X240420Y181532D01*
G75*
G03*
X238624I-898J-519D01*
G01*
X239522Y183089D01*
G37*
Y183824D02*
X240500Y185519D01*
X238544D01*
X239522Y183824D01*
G36*
X239522Y183824D02*
X240500Y185519D01*
X238544D01*
X239522Y183824D01*
G37*
Y189302D02*
Y181014D01*
X239855Y100430D02*
X225736D01*
X222457Y97152D01*
Y90626D01*
X225797Y87287D01*
X234002D01*
X236124Y85165D01*
Y78930D01*
X239855Y103580D02*
X225861D01*
X219995Y97714D01*
Y91307D01*
X218059Y89372D01*
X208246D01*
X206124Y87250D01*
Y78930D01*
X239855Y109879D02*
X211694D01*
X239855Y113028D02*
X209323D01*
X239855Y116178D02*
X207076D01*
Y115997D01*
X239855Y119328D02*
X204705D01*
X244112Y68800D02*
X243647Y67064D01*
G75*
G03*
X242377Y68335I-1002J269D01*
G01*
X244112Y68800D01*
G36*
X244112Y68800D02*
X243647Y67064D01*
G75*
G03*
X242377Y68335I-1002J269D01*
G01*
X244112Y68800D01*
G37*
X244522Y152184D02*
Y160179D01*
Y157662D02*
X243544Y155968D01*
X245500D01*
X244522Y157662D01*
G36*
X244522Y157662D02*
X243544Y155968D01*
X245500D01*
X244522Y157662D01*
G37*
Y158104D02*
X243624Y159660D01*
G75*
G03*
X245420I898J519D01*
G01*
X244522Y158104D01*
G36*
X244522Y158104D02*
X243624Y159660D01*
G75*
G03*
X245420I898J519D01*
G01*
X244522Y158104D01*
G37*
Y183089D02*
X245420Y181532D01*
G75*
G03*
X243624I-898J-519D01*
G01*
X244522Y183089D01*
G36*
X244522Y183089D02*
X245420Y181532D01*
G75*
G03*
X243624I-898J-519D01*
G01*
X244522Y183089D01*
G37*
Y183824D02*
X245500Y185519D01*
X243544D01*
X244522Y183824D01*
G36*
X244522Y183824D02*
X245500Y185519D01*
X243544D01*
X244522Y183824D01*
G37*
Y189302D02*
Y181014D01*
X245989Y30217D02*
Y57334D01*
Y53207D02*
X242943Y47933D01*
X249034D01*
X245989Y53207D01*
G36*
X245989Y53207D02*
X242943Y47933D01*
X249034D01*
X245989Y53207D01*
G37*
Y55259D02*
X245090Y56815D01*
G75*
G03*
X246887I898J519D01*
G01*
X245989Y55259D01*
G36*
X245989Y55259D02*
X245090Y56815D01*
G75*
G03*
X246887I898J519D01*
G01*
X245989Y55259D01*
G37*
X246697Y93587D02*
Y95346D01*
X245266Y96777D01*
X225772D01*
X249522Y152184D02*
Y159929D01*
X249772Y160179D01*
X249522Y157662D02*
X248544Y155968D01*
X250500D01*
X249522Y157662D01*
G36*
X249522Y157662D02*
X248544Y155968D01*
X250500D01*
X249522Y157662D01*
G37*
Y158119D02*
X248818Y159772D01*
G75*
G03*
X250602Y159556I954J407D01*
G01*
X249522Y158119D01*
G36*
X249522Y158119D02*
X248818Y159772D01*
G75*
G03*
X250602Y159556I954J407D01*
G01*
X249522Y158119D01*
G37*
Y183089D02*
X250420Y181532D01*
G75*
G03*
X248624I-898J-519D01*
G01*
X249522Y183089D01*
G36*
X249522Y183089D02*
X250420Y181532D01*
G75*
G03*
X248624I-898J-519D01*
G01*
X249522Y183089D01*
G37*
Y183824D02*
X250500Y185519D01*
X248544D01*
X249522Y183824D01*
G36*
X249522Y183824D02*
X250500Y185519D01*
X248544D01*
X249522Y183824D01*
G37*
Y189302D02*
Y181014D01*
X249847Y89160D02*
X250727Y90684D01*
X248967D01*
X249847Y89160D01*
G36*
X249847Y89160D02*
X250727Y90684D01*
X248967D01*
X249847Y89160D01*
G37*
Y93587D02*
Y88748D01*
X248848Y87749D01*
X245017D01*
X238859Y93907D01*
X228168D01*
X252996Y89160D02*
X253876Y90684D01*
X252117D01*
X252996Y89160D01*
G36*
X252996Y89160D02*
X253876Y90684D01*
X252117D01*
X252996Y89160D01*
G37*
Y93587D02*
Y87153D01*
X252022Y86179D01*
X243893D01*
X239665Y90407D01*
X230415D01*
X252996Y138769D02*
Y142663D01*
X251873Y143786D01*
X226893D01*
X224522Y146157D01*
Y152184D01*
X254522Y183302D02*
X255420Y181745D01*
G75*
G03*
X253624I-898J-519D01*
G01*
X254522Y183302D01*
G36*
X254522Y183302D02*
X255420Y181745D01*
G75*
G03*
X253624I-898J-519D01*
G01*
X254522Y183302D01*
G37*
Y183824D02*
X255500Y185519D01*
X253544D01*
X254522Y183824D01*
G36*
X254522Y183824D02*
X255500Y185519D01*
X253544D01*
X254522Y183824D01*
G37*
Y189302D02*
Y181227D01*
X255989Y30217D02*
Y57501D01*
Y53207D02*
X252943Y47933D01*
X259034D01*
X255989Y53207D01*
G36*
X255989Y53207D02*
X252943Y47933D01*
X259034D01*
X255989Y53207D01*
G37*
Y55426D02*
X255090Y56982D01*
G75*
G03*
X256887I898J519D01*
G01*
X255989Y55426D01*
G36*
X255989Y55426D02*
X255090Y56982D01*
G75*
G03*
X256887I898J519D01*
G01*
X255989Y55426D01*
G37*
X259296Y89160D02*
X260176Y90684D01*
X258416D01*
X259296Y89160D01*
G36*
X259296Y89160D02*
X260176Y90684D01*
X258416D01*
X259296Y89160D01*
G37*
Y93587D02*
Y85919D01*
X261615Y83600D01*
Y75367D01*
X258185Y71936D01*
X242210D01*
X241087Y73059D01*
X239220D01*
X236100Y69939D01*
X231663D01*
X259296Y138769D02*
Y143684D01*
X259522Y143911D01*
X259296Y143196D02*
X258416Y141672D01*
X260176D01*
X259296Y143196D01*
G36*
X259296Y143196D02*
X258416Y141672D01*
X260176D01*
X259296Y143196D01*
G37*
X259522Y146706D02*
X260500Y148401D01*
X258544D01*
X259522Y146706D01*
G36*
X259522Y146706D02*
X260500Y148401D01*
X258544D01*
X259522Y146706D01*
G37*
Y152184D02*
Y143911D01*
Y183302D02*
X260420Y181745D01*
G75*
G03*
X258624I-898J-519D01*
G01*
X259522Y183302D01*
G36*
X259522Y183302D02*
X260420Y181745D01*
G75*
G03*
X258624I-898J-519D01*
G01*
X259522Y183302D01*
G37*
Y183824D02*
X260500Y185519D01*
X258544D01*
X259522Y183824D01*
G36*
X259522Y183824D02*
X260500Y185519D01*
X258544D01*
X259522Y183824D01*
G37*
Y189302D02*
Y181227D01*
X260944Y65077D02*
X259388Y64179D01*
G75*
G03*
Y65976I-519J898D01*
G01*
X260944Y65077D01*
G36*
X260944Y65077D02*
X259388Y64179D01*
G75*
G03*
Y65976I-519J898D01*
G01*
X260944Y65077D01*
G37*
X262445Y138769D02*
Y142717D01*
X264674Y144946D01*
X267545D01*
X270041Y147442D01*
X301741D01*
X305324Y151024D01*
X315272D01*
Y151179D01*
X265595Y89160D02*
X266475Y90684D01*
X264715D01*
X265595Y89160D01*
G36*
X265595Y89160D02*
X266475Y90684D01*
X264715D01*
X265595Y89160D01*
G37*
Y93587D02*
Y76850D01*
X259433Y70688D01*
X240274D01*
X265595Y138769D02*
Y142746D01*
X266546Y143698D01*
X268044D01*
X270540Y146194D01*
X302240D01*
X304725Y148679D01*
X312036D01*
X265989Y30217D02*
Y57501D01*
Y53207D02*
X262943Y47933D01*
X269034D01*
X265989Y53207D01*
G36*
X265989Y53207D02*
X262943Y47933D01*
X269034D01*
X265989Y53207D01*
G37*
Y55426D02*
X265090Y56982D01*
G75*
G03*
X266887I898J519D01*
G01*
X265989Y55426D01*
G36*
X265989Y55426D02*
X265090Y56982D01*
G75*
G03*
X266887I898J519D01*
G01*
X265989Y55426D01*
G37*
X267456Y66544D02*
X266991Y64809D01*
G75*
G03*
X265720Y66079I-1002J269D01*
G01*
X267456Y66544D01*
G36*
X267456Y66544D02*
X266991Y64809D01*
G75*
G03*
X265720Y66079I-1002J269D01*
G01*
X267456Y66544D01*
G37*
X268744Y89160D02*
X269624Y90684D01*
X267865D01*
X268744Y89160D01*
G36*
X268744Y89160D02*
X269624Y90684D01*
X267865D01*
X268744Y89160D01*
G37*
Y93587D02*
Y77135D01*
X261055Y69445D01*
X244758D01*
X242645Y67333D01*
X270976Y63205D02*
X282208Y74437D01*
Y99148D01*
X283489Y100430D01*
X285036D01*
X271894Y89160D02*
X272774Y90684D01*
X271014D01*
X271894Y89160D01*
G36*
X271894Y89160D02*
X272774Y90684D01*
X271014D01*
X271894Y89160D01*
G37*
Y93587D02*
Y77478D01*
X261740Y67324D01*
X254513D01*
X253272Y66083D01*
X271894Y138769D02*
Y142661D01*
X272911Y143679D01*
X305772D01*
X272443Y64672D02*
X271978Y62937D01*
G75*
G03*
X270707Y64207I-1002J269D01*
G01*
X272443Y64672D01*
G36*
X272443Y64672D02*
X271978Y62937D01*
G75*
G03*
X270707Y64207I-1002J269D01*
G01*
X272443Y64672D01*
G37*
X275044Y89160D02*
X275924Y90684D01*
X274164D01*
X275044Y89160D01*
G36*
X275044Y89160D02*
X275924Y90684D01*
X274164D01*
X275044Y89160D01*
G37*
Y93587D02*
Y77757D01*
X262364Y65077D01*
X258870D01*
X275989Y30217D02*
Y57501D01*
Y53207D02*
X272943Y47933D01*
X279034D01*
X275989Y53207D01*
G36*
X275989Y53207D02*
X272943Y47933D01*
X279034D01*
X275989Y53207D01*
G37*
Y55426D02*
X275090Y56982D01*
G75*
G03*
X276887I898J519D01*
G01*
X275989Y55426D01*
G36*
X275989Y55426D02*
X275090Y56982D01*
G75*
G03*
X276887I898J519D01*
G01*
X275989Y55426D01*
G37*
X278193Y89160D02*
X279073Y90684D01*
X277313D01*
X278193Y89160D01*
G36*
X278193Y89160D02*
X279073Y90684D01*
X277313D01*
X278193Y89160D01*
G37*
Y93587D02*
Y77282D01*
X265989Y65077D01*
X278193Y138769D02*
Y135263D01*
X278528Y134929D01*
X302052D01*
X279665Y113028D02*
X278109Y112130D01*
G75*
G03*
Y113927I-519J898D01*
G01*
X279665Y113028D01*
G36*
X279665Y113028D02*
X278109Y112130D01*
G75*
G03*
Y113927I-519J898D01*
G01*
X279665Y113028D01*
G37*
X279961Y116246D02*
X285036Y116178D01*
X280608Y113028D02*
X282132Y112148D01*
Y113908D01*
X280608Y113028D01*
G36*
X280608Y113028D02*
X282132Y112148D01*
Y113908D01*
X280608Y113028D01*
G37*
X280665Y116237D02*
X282132Y115298D01*
Y117058D01*
X280665Y116237D01*
G36*
X280665Y116237D02*
X282132Y115298D01*
Y117058D01*
X280665Y116237D01*
G37*
X281154Y158887D02*
Y154805D01*
X280280Y153931D01*
X280275D01*
X275033Y148690D01*
X269542D01*
X267046Y146194D01*
X264175D01*
X262054Y144072D01*
X259610D01*
X259522Y143984D01*
Y143911D01*
X285036Y103580D02*
X281772D01*
X280585Y102393D01*
Y76185D01*
X266733Y62333D01*
X258272D01*
X257022Y63583D01*
X252022D01*
X250772Y64833D01*
X240772D01*
X238287Y67318D01*
X226110D01*
X285036Y113028D02*
X277590D01*
X285036Y119328D02*
X289946D01*
X285036Y122477D02*
X292442D01*
X285036Y125627D02*
X294918D01*
X294938Y125607D01*
X285036Y128776D02*
X297309D01*
X285036Y131926D02*
X299680D01*
X285989Y30217D02*
Y57501D01*
Y53207D02*
X282943Y47933D01*
X289034D01*
X285989Y53207D01*
G36*
X285989Y53207D02*
X282943Y47933D01*
X289034D01*
X285989Y53207D01*
G37*
Y55426D02*
X285090Y56982D01*
G75*
G03*
X286887I898J519D01*
G01*
X285989Y55426D01*
G36*
X285989Y55426D02*
X285090Y56982D01*
G75*
G03*
X286887I898J519D01*
G01*
X285989Y55426D01*
G37*
X287871Y119328D02*
X289427Y120226D01*
G75*
G03*
Y118429I519J-898D01*
G01*
X287871Y119328D01*
G36*
X287871Y119328D02*
X289427Y120226D01*
G75*
G03*
Y118429I519J-898D01*
G01*
X287871Y119328D01*
G37*
X289463D02*
X287939Y120207D01*
Y118448D01*
X289463Y119328D01*
G36*
X289463Y119328D02*
X287939Y120207D01*
Y118448D01*
X289463Y119328D01*
G37*
Y122477D02*
X287939Y123357D01*
Y121597D01*
X289463Y122477D01*
G36*
X289463Y122477D02*
X287939Y123357D01*
Y121597D01*
X289463Y122477D01*
G37*
Y125627D02*
X287939Y126507D01*
Y124747D01*
X289463Y125627D01*
G36*
X289463Y125627D02*
X287939Y126507D01*
Y124747D01*
X289463Y125627D01*
G37*
Y128776D02*
X287939Y129656D01*
Y127896D01*
X289463Y128776D01*
G36*
X289463Y128776D02*
X287939Y129656D01*
Y127896D01*
X289463Y128776D01*
G37*
Y131926D02*
X287939Y132806D01*
Y131046D01*
X289463Y131926D01*
G36*
X289463Y131926D02*
X287939Y132806D01*
Y131046D01*
X289463Y131926D01*
G37*
X290367Y122477D02*
X291923Y123376D01*
G75*
G03*
Y121579I519J-898D01*
G01*
X290367Y122477D01*
G36*
X290367Y122477D02*
X291923Y123376D01*
G75*
G03*
Y121579I519J-898D01*
G01*
X290367Y122477D01*
G37*
X292863Y125627D02*
X294428Y126510D01*
G75*
G03*
X294411Y124713I510J-904D01*
G01*
X292863Y125627D01*
G36*
X292863Y125627D02*
X294428Y126510D01*
G75*
G03*
X294411Y124713I510J-904D01*
G01*
X292863Y125627D01*
G37*
X295234Y128776D02*
X296791Y129675D01*
G75*
G03*
Y127878I519J-898D01*
G01*
X295234Y128776D01*
G36*
X295234Y128776D02*
X296791Y129675D01*
G75*
G03*
Y127878I519J-898D01*
G01*
X295234Y128776D01*
G37*
X295989Y30217D02*
Y57501D01*
Y53207D02*
X292943Y47933D01*
X299034D01*
X295989Y53207D01*
G36*
X295989Y53207D02*
X292943Y47933D01*
X299034D01*
X295989Y53207D01*
G37*
Y55426D02*
X295090Y56982D01*
G75*
G03*
X296887I898J519D01*
G01*
X295989Y55426D01*
G36*
X295989Y55426D02*
X295090Y56982D01*
G75*
G03*
X296887I898J519D01*
G01*
X295989Y55426D01*
G37*
X297606Y131926D02*
X299162Y132824D01*
G75*
G03*
Y131028I519J-898D01*
G01*
X297606Y131926D01*
G36*
X297606Y131926D02*
X299162Y132824D01*
G75*
G03*
Y131028I519J-898D01*
G01*
X297606Y131926D01*
G37*
X299977Y134929D02*
X301533Y135827D01*
G75*
G03*
Y134030I519J-898D01*
G01*
X299977Y134929D01*
G36*
X299977Y134929D02*
X301533Y135827D01*
G75*
G03*
Y134030I519J-898D01*
G01*
X299977Y134929D01*
G37*
X303697Y143679D02*
X305254Y144577D01*
G75*
G03*
Y142780I519J-898D01*
G01*
X303697Y143679D01*
G36*
X303697Y143679D02*
X305254Y144577D01*
G75*
G03*
Y142780I519J-898D01*
G01*
X303697Y143679D01*
G37*
X305989Y30217D02*
Y57750D01*
Y53207D02*
X302943Y47933D01*
X309034D01*
X305989Y53207D01*
G36*
X305989Y53207D02*
X302943Y47933D01*
X309034D01*
X305989Y53207D01*
G37*
Y55676D02*
X305090Y57232D01*
G75*
G03*
X306887I898J519D01*
G01*
X305989Y55676D01*
G36*
X305989Y55676D02*
X305090Y57232D01*
G75*
G03*
X306887I898J519D01*
G01*
X305989Y55676D01*
G37*
X307215Y146179D02*
X308772Y147077D01*
G75*
G03*
Y145280I519J-898D01*
G01*
X307215Y146179D01*
G36*
X307215Y146179D02*
X308772Y147077D01*
G75*
G03*
Y145280I519J-898D01*
G01*
X307215Y146179D01*
G37*
X309290D02*
X303972D01*
X302739Y144946D01*
X271039D01*
X268772Y142679D01*
X268744D01*
Y138769D01*
X309961Y148679D02*
X311517Y149577D01*
G75*
G03*
Y147780I519J-898D01*
G01*
X309961Y148679D01*
G36*
X309961Y148679D02*
X311517Y149577D01*
G75*
G03*
Y147780I519J-898D01*
G01*
X309961Y148679D01*
G37*
X313203Y151024D02*
X314688Y152036D01*
G75*
G03*
X314822Y150244I584J-857D01*
G01*
X313203Y151024D01*
G36*
X313203Y151024D02*
X314688Y152036D01*
G75*
G03*
X314822Y150244I584J-857D01*
G01*
X313203Y151024D01*
G37*
X325989Y30217D02*
Y57173D01*
X325828Y57334D01*
X325989Y53207D02*
X322943Y47933D01*
X329034D01*
X325989Y53207D01*
G36*
X325989Y53207D02*
X322943Y47933D01*
X329034D01*
X325989Y53207D01*
G37*
Y55265D02*
X324972Y56747D01*
G75*
G03*
X326764Y56887I856J587D01*
G01*
X325989Y55265D01*
G36*
X325989Y55265D02*
X324972Y56747D01*
G75*
G03*
X326764Y56887I856J587D01*
G01*
X325989Y55265D01*
G37*
X370211Y56086D02*
X368655Y55187D01*
G75*
G03*
Y56984I-519J898D01*
G01*
X370211Y56086D01*
G36*
X370211Y56086D02*
X368655Y55187D01*
G75*
G03*
Y56984I-519J898D01*
G01*
X370211Y56086D01*
G37*
X375989Y30217D02*
Y54035D01*
X373938Y56086D01*
X368136D01*
X375989Y53207D02*
X372943Y47933D01*
X379034D01*
X375989Y53207D01*
G36*
X375989Y53207D02*
X372943Y47933D01*
X379034D01*
X375989Y53207D01*
G37*
D02*
D85*
X176000Y59498D03*
X180772Y65945D03*
X185860Y59498D03*
X190916Y65945D03*
D02*
D86*
X256124Y78930D03*
D02*
D87*
X206124D03*
X216124D03*
X226124D03*
X236124D03*
X246124D03*
D02*
D88*
X239855Y100430D03*
Y103580D03*
Y106729D03*
Y109879D03*
Y113028D03*
Y116178D03*
Y119328D03*
Y122477D03*
Y125627D03*
Y128776D03*
Y131926D03*
X285036Y100430D03*
Y103580D03*
Y106729D03*
Y109879D03*
Y113028D03*
Y116178D03*
Y119328D03*
Y122477D03*
Y125627D03*
Y128776D03*
Y131926D03*
D02*
D89*
X246697Y93587D03*
Y138769D03*
X249847Y93587D03*
Y138769D03*
X252996Y93587D03*
Y138769D03*
X256146Y93587D03*
Y138769D03*
X259296Y93587D03*
Y138769D03*
X262445Y93587D03*
Y138769D03*
X265595Y93587D03*
Y138769D03*
X268744Y93587D03*
Y138769D03*
X271894Y93587D03*
Y138769D03*
X275044Y93587D03*
Y138769D03*
X278193Y93587D03*
Y138769D03*
D02*
D90*
X178555Y108679D03*
Y118679D03*
X182424Y148404D03*
Y158887D03*
X185555Y108679D03*
Y118679D03*
X189424Y148404D03*
Y158887D03*
X274279Y168497D03*
X281279D03*
X294996Y109964D03*
X301996D03*
D02*
D91*
X178540Y131060D03*
Y134800D03*
Y138540D03*
X189563Y131060D03*
Y138540D03*
D02*
D92*
X199522Y152184D03*
Y189302D03*
X204522Y152184D03*
Y189302D03*
X209522Y152184D03*
Y189302D03*
X214522Y152184D03*
Y189302D03*
X219522Y152184D03*
Y189302D03*
X224522Y152184D03*
Y189302D03*
X229522Y152184D03*
Y189302D03*
X234522Y152184D03*
Y189302D03*
X239522Y152184D03*
Y189302D03*
X244522Y152184D03*
Y189302D03*
X249522Y152184D03*
Y189302D03*
X254522Y152184D03*
Y189302D03*
X259522Y152184D03*
Y189302D03*
X264522Y152184D03*
Y189302D03*
D02*
D93*
X274154Y158887D03*
X281154D03*
X0Y0D02*
M02*
